<svg width="400" height="320" viewBox="0 0 400 320" xmlns="http://www.w3.org/2000/svg" role="img" aria-labelledby="title desc">
  <title id="title">Constellation linked star systems</title>
  <desc id="desc">Stylised map depicting glowing nodes connected by orbital arcs.</desc>
  <defs>
    <radialGradient id="bg" cx="50%" cy="45%" r="70%">
      <stop offset="0%" stop-color="#3e4a97" stop-opacity="0.55"/>
      <stop offset="100%" stop-color="#121830" stop-opacity="0"/>
    </radialGradient>
    <linearGradient id="orbit" x1="0%" y1="0%" x2="100%" y2="100%">
      <stop offset="0%" stop-color="#ffd95e" stop-opacity="0.95"/>
      <stop offset="100%" stop-color="#8ab1ff" stop-opacity="0.2"/>
    </linearGradient>
    <filter id="glow" x="-30%" y="-30%" width="160%" height="160%">
      <feGaussianBlur stdDeviation="6" result="blur"/>
      <feMerge>
        <feMergeNode in="blur"/>
        <feMergeNode in="SourceGraphic"/>
      </feMerge>
    </filter>
  </defs>
  <rect width="400" height="320" fill="#0c1124" rx="24"/>
  <rect x="0" y="0" width="400" height="320" fill="url(#bg)"/>
  <g stroke="url(#orbit)" stroke-width="1.8" stroke-linecap="round" stroke-linejoin="round" opacity="0.85">
    <path d="M70 220 C140 140, 220 200, 300 90"/>
    <path d="M130 70 Q240 100 320 150"/> 
    <path d="M90 250 Q200 260 330 230"/>
    <path d="M180 60 Q150 160 200 240 Q230 290 310 270"/>
  </g>
  <g>
    <circle cx="72" cy="220" r="8" fill="#ffd95e" filter="url(#glow)"/>
    <circle cx="128" cy="70" r="9" fill="#8ab1ff" filter="url(#glow)"/>
    <circle cx="186" cy="60" r="7" fill="#ff9f6e" filter="url(#glow)"/>
    <circle cx="302" cy="90" r="10" fill="#ffd95e" filter="url(#glow)"/>
    <circle cx="320" cy="150" r="7" fill="#8ab1ff" filter="url(#glow)"/>
    <circle cx="200" cy="240" r="9" fill="#ffd95e" filter="url(#glow)"/>
    <circle cx="330" cy="230" r="8" fill="#8ab1ff" filter="url(#glow)"/>
    <circle cx="90" cy="250" r="6" fill="#ff9f6e" filter="url(#glow)"/>
  </g>
  <g fill="#ffffff" opacity="0.35">
    <circle cx="40" cy="60" r="1.6"/>
    <circle cx="360" cy="50" r="1.8"/>
    <circle cx="50" cy="280" r="1.4"/>
    <circle cx="370" cy="200" r="1.5"/>
    <circle cx="260" cy="300" r="1.3"/>
    <circle cx="210" cy="160" r="1.5"/>
    <circle cx="140" cy="180" r="1.2"/>
  </g>
</svg>
