<svg xmlns="http://www.w3.org/2000/svg" viewBox="1117 837 245 305">
<defs>
    <radialGradient
       id="SVGID_19_"
       cx="3033.5759"
       cy="920.07953"
       r="20.0744"
       gradientTransform="matrix(1.3472,0,0,1.3472,-3585.3904,-175.2076)"
       gradientUnits="userSpaceOnUse"><stop
         offset="0"
         style="stop-color:#FBED22"
         id="stop35744" /><stop
         offset="1"
         style="stop-color:#076E3A"
         id="stop35746" /></radialGradient>
    <radialGradient
       id="SVGID_20_"
       cx="2978.5405"
       cy="810.31042"
       r="3.6575999"
       gradientTransform="matrix(1.347,0,0,1.347,-3522.0642,-51.3046)"
       gradientUnits="userSpaceOnUse"><stop
         offset="0"
         style="stop-color:#FBED22"
         id="stop35751" /><stop
         offset="1"
         style="stop-color:#076E3A"
         id="stop35753" /></radialGradient>
    <radialGradient
       id="SVGID_21_"
       cx="3048.7529"
       cy="810.34509"
       r="3.6575999"
       gradientTransform="matrix(1.3469,0,0,1.3469,-3600.9517,-51.3122)"
       gradientUnits="userSpaceOnUse"><stop
         offset="0"
         style="stop-color:#FBED22"
         id="stop35758" /><stop
         offset="1"
         style="stop-color:#076E3A"
         id="stop35760" /></radialGradient>
    <radialGradient
       id="SVGID_22_"
       cx="7177.5962"
       cy="-120.4934"
       r="1.9638"
       gradientTransform="matrix(3.1002,0,0,3.1002,-21748.164,1434.8922)"
       gradientUnits="userSpaceOnUse"><stop
         offset="0"
         style="stop-color:#565759"
         id="stop35765" /><stop
         offset="1"
         style="stop-color:#010101"
         id="stop35767" /></radialGradient>
    <radialGradient
       id="SVGID_23_"
       cx="4724.2764"
       cy="495.18289"
       r="5.4201002"
       gradientTransform="matrix(1.7565,0,0,1.7565,-7797.8867,193.3315)"
       gradientUnits="userSpaceOnUse"><stop
         offset="0"
         style="stop-color:#565759"
         id="stop35772" /><stop
         offset="1"
         style="stop-color:#010101"
         id="stop35774" /></radialGradient>
    <radialGradient
       id="SVGID_24_"
       cx="4295.8291"
       cy="686.13422"
       r="16.010401"
       gradientTransform="matrix(1.6522,0,0,1.6523,-6609.0283,-54.5774)"
       gradientUnits="userSpaceOnUse"><stop
         offset="0"
         style="stop-color:#1F341B"
         id="stop35779" /><stop
         offset="1"
         style="stop-color:#076E3A"
         id="stop35781" /></radialGradient>
    <radialGradient
       id="SVGID_25_"
       cx="19830.678"
       cy="-3041.8586"
       r="6.2245002"
       gradientTransform="matrix(-1,-8.71454e-4,8.71448e-4,-1,20323.941,-1952.0043)"
       gradientUnits="userSpaceOnUse"><stop
         offset="0"
         style="stop-color:#BBBDBF"
         id="stop35786" /><stop
         offset="0.6"
         style="stop-color:#A8AAAC"
         id="stop35788" /><stop
         offset="0.651"
         style="stop-color:#B7B9BB"
         id="stop35790" /><stop
         offset="0.7412"
         style="stop-color:#D3D4D6"
         id="stop35792" /><stop
         offset="0.8118"
         style="stop-color:#E3E4E5"
         id="stop35794" /><stop
         offset="0.8588"
         style="stop-color:#E9EAEB"
         id="stop35796" /><stop
         offset="1"
         style="stop-color:#626366"
         id="stop35798" /></radialGradient>
    <radialGradient
       id="SVGID_26_"
       cx="19910.176"
       cy="-2766.1931"
       r="2.3796"
       gradientTransform="matrix(-1,-0.0019,0.0019,-1,20408.871,-1645.8606)"
       gradientUnits="userSpaceOnUse"><stop
         offset="0"
         style="stop-color:#BBBDBF"
         id="stop35805" /><stop
         offset="0.6"
         style="stop-color:#A8AAAC"
         id="stop35807" /><stop
         offset="0.651"
         style="stop-color:#B7B9BB"
         id="stop35809" /><stop
         offset="0.7412"
         style="stop-color:#D3D4D6"
         id="stop35811" /><stop
         offset="0.8118"
         style="stop-color:#E3E4E5"
         id="stop35813" /><stop
         offset="0.8588"
         style="stop-color:#E9EAEB"
         id="stop35815" /><stop
         offset="1"
         style="stop-color:#626366"
         id="stop35817" /></radialGradient>
    <linearGradient
       id="SVGID_27_"
       gradientUnits="userSpaceOnUse"
       x1="473.85461"
       y1="1570.2817"
       x2="490.58929"
       y2="1547.4795"
       gradientTransform="translate(0,-475.526)"><stop
         offset="0"
         style="stop-color:#BBBDBF"
         id="stop35824" /><stop
         offset="0.1686"
         style="stop-color:#E9EAEB"
         id="stop35826" /><stop
         offset="0.7412"
         style="stop-color:#A8AAAC"
         id="stop35828" /><stop
         offset="0.8"
         style="stop-color:#8F9194"
         id="stop35830" /><stop
         offset="0.8784"
         style="stop-color:#787A7C"
         id="stop35832" /><stop
         offset="0.949"
         style="stop-color:#696A6C"
         id="stop35834" /><stop
         offset="1"
         style="stop-color:#626366"
         id="stop35836" /></linearGradient>
    <radialGradient
       inkscape:collect="always"
       xlink:href="#SVGID_22_"
       id="radialGradient64954"
       gradientUnits="userSpaceOnUse"
       gradientTransform="matrix(3.1002,0,0,3.1002,-21748.164,1434.8922)"
       cx="7177.5962"
       cy="-120.4934"
       r="1.9638" />
    <radialGradient
       inkscape:collect="always"
       xlink:href="#SVGID_23_"
       id="radialGradient64956"
       gradientUnits="userSpaceOnUse"
       gradientTransform="matrix(1.7565,0,0,1.7565,-7797.8867,193.3315)"
       cx="4724.2764"
       cy="495.18289"
       r="5.4201002" />
</defs>
<g transform="matrix(4.908848,0,0,5.0852602,-1186.6163,-4395.5974)">
    <path
        style="fill:#bcbdbf;fill-opacity:0.74900004"
        inkscape:connector-curvature="0"
        id="path35739"
        d="m 495.885,1089.509 c 11.789,0 21.287,1.078 21.287,2.493 0,1.415 -9.498,2.56 -21.287,2.56 -11.789,0 -21.354,-1.145 -21.354,-2.56 0,-1.415 9.565,-2.493 21.354,-2.493 z" />
    <path
        style="fill:#8bc541;stroke:#046031;stroke-width:0.74580002"
        inkscape:connector-curvature="0"
        id="path35741"
        d="m 502.689,1050.505 c 8.353,2.627 14.483,10.509 14.483,19.738 0,11.452 -9.296,20.748 -20.748,20.748 -11.452,0 -20.748,-9.296 -20.748,-20.748 0,-9.566 6.534,-17.649 15.359,-20.007 l 0.135,-0.471 c -0.539,-0.674 -1.886,-4.109 -2.088,-4.109 -2.425,0.068 -4.379,-1.819 -4.514,-4.244 -0.067,-2.425 1.819,-4.379 4.244,-4.446 2.425,-0.135 4.379,1.751 4.513,4.177 0,1.482 -0.674,2.762 -1.751,3.57 -0.135,0.135 1.212,3.773 1.347,4.648 l 0.741,0.337 c 0.876,-0.135 1.819,-0.202 2.762,-0.202 1.28,0 2.492,0.135 3.705,0.337 l 0.808,-0.337 c 0.067,-0.808 1.145,-4.581 0.943,-4.648 -1.078,-0.808 -1.819,-2.021 -1.886,-3.436 -0.067,-2.425 1.819,-4.446 4.244,-4.513 2.358,-0.068 4.379,1.819 4.446,4.177 0.067,2.425 -1.751,4.446 -4.177,4.513 -0.269,0 -1.549,3.57 -2.021,4.379 l 0.203,0.537 z" />
    <path
        inkscape:connector-curvature="0"
        style="fill:url(#SVGID_19_);stroke:#2a9045;stroke-width:0.74580002"
        id="path35748"
        d="m 496.357,1050.236 c 11.048,0 20.074,9.027 20.074,20.075 0,11.115 -9.027,20.075 -20.074,20.075 -11.115,0 -20.075,-8.959 -20.075,-20.075 0,-11.048 8.959,-20.075 20.075,-20.075 z" />
    <path
        inkscape:connector-curvature="0"
        style="fill:url(#SVGID_20_);fill-opacity:0.50199998"
        id="path35755"
        d="m 488.947,1037.639 c 2.021,0 3.638,1.617 3.638,3.638 0,2.021 -1.617,3.705 -3.638,3.705 -2.021,0 -3.705,-1.684 -3.705,-3.705 -0.001,-2.021 1.683,-3.638 3.705,-3.638 z" />
    <path
        inkscape:connector-curvature="0"
        style="fill:url(#SVGID_21_);fill-opacity:0.41180001"
        id="path35762"
        d="m 504.373,1037.639 c 2.021,0 3.638,1.617 3.638,3.638 0,2.021 -1.617,3.638 -3.638,3.638 -2.021,0 -3.705,-1.617 -3.705,-3.638 0,-2.021 1.684,-3.638 3.705,-3.638 z" />
    <path
        inkscape:connector-curvature="0"
        style="fill:url(#radialGradient64954)"
        id="path35769"
        d="m 493.258,1054.413 c 0.674,0.606 1.078,1.684 1.212,2.425 0.135,1.415 -0.337,3.031 -1.347,4.042 -1.549,1.617 -4.311,1.347 -6.4,1.347 -1.145,0 -2.627,0 -2.56,-1.549 0.135,-2.695 2.694,-4.581 4.918,-5.659 0.876,-0.404 2.358,-1.213 3.368,-1.01 0.337,0.067 0.539,0.201 0.809,0.404 z" />
    <path
        inkscape:connector-curvature="0"
        style="fill:url(#radialGradient64956)"
        id="path35776"
        d="m 497.906,1057.309 c -0.067,1.482 0.404,3.099 1.415,3.773 1.482,0.943 3.166,1.28 4.85,1.415 1.28,0.135 3.503,0.674 4.177,-0.741 1.145,-2.56 -0.404,-4.648 -2.29,-6.265 -1.617,-1.28 -4.581,-2.762 -6.602,-1.482 -0.944,0.606 -1.483,1.886 -1.55,3.3 z" />
    <path
        inkscape:connector-curvature="0"
        style="fill:url(#SVGID_24_);stroke:#1f341b;stroke-width:0.89490002"
        id="path35783"
        d="m 505.316,1079.135 c 0.067,-0.067 0.202,-0.067 0.269,-0.135 1.617,-0.741 2.762,-2.56 3.638,-4.042 0.471,-0.741 0.808,-1.482 1.078,-2.29 0.471,-1.145 1.01,-2.358 1.415,-3.57 -1.347,3.638 -4.244,5.995 -7.949,7.006 -3.099,0.876 -6.4,0.808 -9.633,0.471 -0.269,0 -0.606,-0.068 -0.943,-0.068 -3.099,-0.471 -5.659,-1.078 -8.218,-3.031 -2.021,-1.549 -3.705,-3.638 -5.322,-5.591 2.29,2.829 3.234,6.871 5.861,9.498 1.078,1.01 2.088,0.404 3.301,0.337 0.539,0 1.145,0 1.684,-0.068 0.539,-0.067 1.078,-0.404 1.617,-0.471 0.808,-0.135 1.617,-0.202 2.425,-0.269 0.943,-0.068 1.617,-0.068 2.56,0.202 0.876,0.202 1.751,0.337 2.56,0.741 1.817,0.876 3.704,2.021 5.657,1.28 z" />
    <path
        inkscape:connector-curvature="0"
        style="fill:url(#SVGID_25_)"
        id="path35800"
        d="m 484.366,1074.083 0.404,-0.674 c 0.808,-0.674 1.482,-1.549 2.29,-2.223 1.01,-0.741 2.156,-1.347 3.368,-1.617 1.482,-0.337 2.964,0.068 4.177,0.943 0.674,0.539 1.28,1.01 1.684,1.819 0.067,0.135 0.606,1.213 0.539,1.213 -0.202,0.067 -0.337,0.202 -0.539,0.269 -0.202,0.067 -0.404,0.068 -0.606,0.068 -0.135,0.067 -1.347,0.337 -1.347,0.202 -0.135,-1.28 -1.819,-2.021 -2.964,-1.954 -1.145,0.135 -2.29,0.808 -3.166,1.549 -0.606,0.471 -1.347,1.617 -2.088,1.886 -1.079,0.473 -1.281,-0.673 -1.752,-1.481 z" />
    <path
        style="fill:none;stroke:#1f341b;stroke-width:0.61750001"
        inkscape:connector-curvature="0"
        id="path35802"
        d="m 484.77,1073.409 c 0.808,-0.674 1.482,-1.549 2.29,-2.223 1.01,-0.741 2.156,-1.347 3.368,-1.617 1.482,-0.337 2.964,0.068 4.177,0.943 0.674,0.539 1.28,1.01 1.684,1.819 0.067,0.135 0.606,1.213 0.539,1.213 -0.202,0.067 -0.337,0.202 -0.539,0.269 -0.202,0.067 -0.404,0.068 -0.606,0.068 -0.135,0.067 -1.347,0.337 -1.347,0.202 -0.135,-1.28 -1.819,-2.021 -2.964,-1.954 -1.145,0.135 -2.29,0.808 -3.166,1.549 -0.606,0.471 -1.347,1.617 -2.088,1.886 -1.078,0.471 -1.28,-0.674 -1.751,-1.482" />
    <path
        inkscape:connector-curvature="0"
        style="fill:url(#SVGID_26_)"
        id="path35819"
        d="m 491.237,1081.695 0.269,-0.471 c 0.539,0.876 0.943,2.627 0.943,3.638 0,0.135 0.943,-0.404 1.01,-0.471 0.337,-0.269 0.674,-0.606 1.01,-0.943 0.337,-0.471 1.415,-1.886 1.145,-2.56 -0.135,-0.404 -1.549,-0.876 -1.954,-0.741 -0.337,0.202 -0.539,0.674 -0.876,0.943 -0.402,0.336 -0.941,0.605 -1.547,0.605 z" />
    <path
        style="fill:none;stroke:#1f341b;stroke-width:0.61750001"
        inkscape:connector-curvature="0"
        id="path35821"
        d="m 491.506,1081.224 c 0.539,0.876 0.943,2.627 0.943,3.638 0,0.135 0.943,-0.404 1.01,-0.472 0.337,-0.269 0.674,-0.606 1.01,-0.943 0.337,-0.472 1.415,-1.886 1.145,-2.56 -0.135,-0.404 -1.549,-0.876 -1.954,-0.741 -0.337,0.202 -0.539,0.674 -0.876,0.943 -0.404,0.337 -0.943,0.606 -1.549,0.606" />
    <path
        inkscape:connector-curvature="0"
        style="fill:url(#SVGID_27_)"
        id="path35838"
        d="m 473.251,1079.203 c -0.808,0.539 -1.684,1.28 -1.819,2.29 -0.202,0.876 0.135,1.684 0.27,2.56 0.135,0.808 0.539,1.684 0.943,2.425 0.539,0.943 1.078,1.819 1.751,2.695 0.943,1.28 2.021,2.358 3.234,3.301 1.684,1.28 3.503,2.627 5.726,1.617 2.56,-1.145 4.85,-3.301 6.804,-5.322 0.876,-0.943 2.29,-2.088 2.897,-3.234 0.135,-0.337 0.202,-0.471 0.269,-0.876 0.337,-3.368 -2.896,-7.208 -4.985,-9.498 -1.549,-1.617 -3.435,-3.57 -5.793,-2.29 -2.425,1.347 -4.648,3.031 -6.871,4.783 -0.608,0.403 -1.551,0.942 -2.426,1.549 z" />
    <path
        style="fill:none;stroke:#1f341b;stroke-width:0.89490002"
        inkscape:connector-curvature="0"
        id="path35840"
        d="m 492.18,1073.746 c 1.212,0.674 2.762,0.337 3.974,0.135 0.674,-0.135 1.28,-0.471 1.886,-0.674" />
    <path
        style="fill:none;stroke:#1f341b;stroke-width:0.89490002"
        inkscape:connector-curvature="0"
        id="path35842"
        d="m 492.315,1080.348 c 0.943,-0.337 2.021,-0.337 2.964,0.135 0.539,0.269 1.617,1.213 1.751,1.751" />
    <path
        style="fill:#626366"
        inkscape:connector-curvature="0"
        id="path35844"
        d="m 480.93,1089.105 c -0.876,-1.28 -1.819,-2.493 -2.829,-3.638 -0.674,-0.808 -1.415,-1.617 -2.223,-2.29 -0.876,-0.808 -2.493,-2.425 -3.772,-2.29 -1.751,0.135 0,4.311 0.27,5.052 0.269,0.674 0.741,1.415 1.145,2.021 0.471,0.741 1.01,1.415 1.617,2.088 0.606,0.674 1.347,1.28 2.021,1.819 0.741,0.674 1.617,1.213 2.492,1.751 0.808,0.539 1.886,1.213 2.829,0.606 1.347,-0.808 -0.471,-3.503 -1.01,-4.311 -0.203,-0.269 -0.338,-0.538 -0.54,-0.808 z" />
    <path
        style="fill:none;stroke:#434444;stroke-width:0.61750001"
        inkscape:connector-curvature="0"
        id="path35846"
        d="m 473.251,1079.203 c -0.808,0.539 -1.684,1.28 -1.819,2.29 -0.202,0.876 0.135,1.684 0.27,2.56 0.135,0.808 0.539,1.684 0.943,2.425 0.539,0.943 1.078,1.819 1.751,2.695 0.943,1.28 2.021,2.358 3.234,3.301 1.684,1.28 3.503,2.627 5.726,1.617 2.56,-1.145 4.85,-3.301 6.804,-5.322 0.876,-0.943 2.29,-2.088 2.897,-3.234 0.135,-0.337 0.202,-0.471 0.269,-0.876 0.337,-3.368 -2.896,-7.208 -4.985,-9.498 -1.549,-1.617 -3.435,-3.57 -5.793,-2.29 -2.425,1.347 -4.648,3.031 -6.871,4.783 -0.608,0.403 -1.551,0.942 -2.426,1.549" />
    <path
        style="fill:none;stroke:#1f341b;stroke-width:0.89490002"
        inkscape:connector-curvature="0"
        id="path35848"
        d="m 478.976,1068.559 c 0.674,-0.404 1.415,-0.876 2.021,-1.28" />
    <path
        style="fill:none;stroke:#1f341b;stroke-width:0.89490002"
        inkscape:connector-curvature="0"
        id="path35850"
        d="m 510.638,1068.357 c 0.674,0.471 1.415,0.943 2.29,0.943" />
    <path
        style="fill:#ffffff"
        inkscape:connector-curvature="0"
        id="path35852"
        d="m 505.181,1056.636 c -0.067,0.606 1.01,1.549 1.347,0.741 0.203,-0.539 -1.279,-1.752 -1.347,-0.741 z" />
    <path
        style="fill:#ffffff"
        inkscape:connector-curvature="0"
        id="path35854"
        d="m 504.171,1056.164 c -1.415,-0.606 0.404,1.684 0.135,0.135 -0.135,-0.067 -0.202,-0.135 -0.269,-0.135 l 0.134,0 z" />
    <path
        style="fill:#ffffff"
        inkscape:connector-curvature="0"
        id="path35856"
        d="m 492.517,1054.884 c -0.674,-0.269 -1.751,0.674 -0.876,1.078 0.674,0.27 1.819,-0.606 0.876,-1.078 z" />
    <path
        style="fill:#ffffff"
        inkscape:connector-curvature="0"
        id="path35858"
        d="m 490.428,1055.356 c -1.078,0.606 0.943,0.943 0.067,0.135 l -0.067,-0.135 z" />
    <path
        style="fill:#626366;stroke:#1f341b;stroke-width:0.30880001"
        inkscape:connector-curvature="0"
        id="path35860"
        d="m 486.791,1079.944 c -0.606,-0.876 -1.751,-1.145 -2.627,-0.539 -0.741,0.471 -0.943,1.482 -0.606,2.29 l -2.358,1.415 1.145,1.751 2.156,-2.156 c 0.606,0.269 1.347,0.269 1.886,-0.135 0.875,-0.538 1.077,-1.75 0.404,-2.626 z" />
</g>
</svg>
