<svg xmlns="http://www.w3.org/2000/svg" viewBox="0 0 210 297" height="1052.36" width="744.09"><defs><filter height="1.3" width="1.3" y="-.15" x="-.15" id="3" color-interpolation-filters="sRGB"><feTurbulence type="fractalNoise" numOctaves="3" baseFrequency=".25 .4" seed="5"/><feColorMatrix result="result5" values="1 0 0 0 0 0 1 0 0 0 0 0 1 0 0 0 0 0 1 0 "/><feComposite in="SourceGraphic" operator="in" in2="result5"/><feMorphology operator="dilate" radius="1.5" result="result3"/><feTurbulence numOctaves="5" baseFrequency=".03" type="fractalNoise" seed="7"/><feGaussianBlur stdDeviation=".5" result="result91"/><feDisplacementMap in="result3" xChannelSelector="R" yChannelSelector="G" scale="27" result="result4" in2="result91"/><feComposite k4="0" k2="0" in="result4" k3=".8" k1="1.3" result="result2" operator="arithmetic" in2="result4"/><feBlend in2="result2" mode="screen" in="result2"/></filter><filter height="1.3" width="1.3" y="-.15" x="-.15" id="2" color-interpolation-filters="sRGB"><feTurbulence type="fractalNoise" numOctaves="3" baseFrequency=".25 .4" seed="5"/><feColorMatrix result="result5" values="1 0 0 0 0 0 1 0 0 0 0 0 1 0 0 0 0 0 1 0 "/><feComposite in="SourceGraphic" operator="in" in2="result5"/><feMorphology operator="dilate" radius="1.5" result="result3"/><feTurbulence numOctaves="5" baseFrequency=".03" type="fractalNoise" seed="7"/><feGaussianBlur stdDeviation=".5" result="result91"/><feDisplacementMap in="result3" xChannelSelector="R" yChannelSelector="G" scale="27" result="result4" in2="result91"/><feComposite k4="0" k2="0" in="result4" k3=".8" k1="1.3" result="result2" operator="arithmetic" in2="result4"/><feBlend in2="result2" mode="screen" in="result2" result="fbSourceGraphic"/><feColorMatrix result="fbSourceGraphicAlpha" in="fbSourceGraphic" values="0 0 0 -1 0 0 0 0 -1 0 0 0 0 -1 0 0 0 0 1 0 "/><feGaussianBlur stdDeviation=".4" result="blur" in="fbSourceGraphic"/><feComposite in2="blur" in="fbSourceGraphic" operator="in" result="composite1"/><feComposite in2="composite1" in="composite1" operator="in" result="fbSourceGraphic"/><feColorMatrix result="fbSourceGraphicAlpha" in="fbSourceGraphic" values="0 0 0 -1 0 0 0 0 -1 0 0 0 0 -1 0 0 0 0 1 0 "/><feGaussianBlur stdDeviation=".4" result="blur" in="fbSourceGraphic"/><feComposite in2="blur" in="fbSourceGraphic" operator="in" result="composite1"/><feComposite in2="composite1" in="composite1" operator="in" result="fbSourceGraphic"/><feColorMatrix result="fbSourceGraphicAlpha" in="fbSourceGraphic" values="0 0 0 -1 0 0 0 0 -1 0 0 0 0 -1 0 0 0 0 1 0 "/><feGaussianBlur stdDeviation=".72" result="blur" in="fbSourceGraphic"/><feComposite in2="blur" in="fbSourceGraphic" operator="in" result="composite1"/><feComposite in2="composite1" in="composite1" operator="in" result="fbSourceGraphic"/><feColorMatrix result="fbSourceGraphicAlpha" in="fbSourceGraphic" values="0 0 0 -1 0 0 0 0 -1 0 0 0 0 -1 0 0 0 0 1 0 "/><feTurbulence numOctaves="5" seed="0" type="fractalNoise" baseFrequency=".08"/><feGaussianBlur stdDeviation=".5" result="result91"/><feDisplacementMap in2="result91" scale="20" yChannelSelector="G" xChannelSelector="R" in="fbSourceGraphic" result="result1"/><feComposite in2="fbSourceGraphic" in="result1" operator="atop" result="fbSourceGraphic"/><feColorMatrix result="fbSourceGraphicAlpha" in="fbSourceGraphic" values="0 0 0 -1 0 0 0 0 -1 0 0 0 0 -1 0 0 0 0 1 0 "/><feTurbulence numOctaves="5" seed="0" type="fractalNoise" baseFrequency=".08"/><feGaussianBlur stdDeviation=".5" result="result91"/><feDisplacementMap in2="result91" scale="20" yChannelSelector="G" xChannelSelector="R" in="fbSourceGraphic" result="result1"/><feComposite in2="fbSourceGraphic" in="result1" operator="atop"/></filter><filter height="1.3" width="1.3" y="-.15" x="-.15" id="0" color-interpolation-filters="sRGB"><feTurbulence type="fractalNoise" numOctaves="3" baseFrequency=".25 .4" seed="5"/><feColorMatrix result="result5" values="1 0 0 0 0 0 1 0 0 0 0 0 1 0 0 0 0 0 1 0 "/><feComposite in="SourceGraphic" operator="in" in2="result5"/><feMorphology operator="dilate" radius="1.5" result="result3"/><feTurbulence numOctaves="5" baseFrequency=".03" type="fractalNoise" seed="7"/><feGaussianBlur stdDeviation=".5" result="result91"/><feDisplacementMap in="result3" xChannelSelector="R" yChannelSelector="G" scale="27" result="result4" in2="result91"/><feComposite k4="0" k2="0" in="result4" k3=".8" k1="1.3" result="result2" operator="arithmetic" in2="result4"/><feBlend in2="result2" mode="screen" in="result2"/></filter><filter height="1.3" width="1.3" y="-.15" x="-.15" id="1" color-interpolation-filters="sRGB"><feTurbulence type="fractalNoise" numOctaves="3" baseFrequency=".25 .4" seed="5"/><feColorMatrix result="result5" values="1 0 0 0 0 0 1 0 0 0 0 0 1 0 0 0 0 0 1 0 "/><feComposite in="SourceGraphic" operator="in" in2="result5"/><feMorphology operator="dilate" radius="1.5" result="result3"/><feTurbulence numOctaves="5" baseFrequency=".03" type="fractalNoise" seed="7"/><feGaussianBlur stdDeviation=".5" result="result91"/><feDisplacementMap in="result3" xChannelSelector="R" yChannelSelector="G" scale="27" result="result4" in2="result91"/><feComposite k4="0" k2="0" in="result4" k3=".8" k1="1.3" result="result2" operator="arithmetic" in2="result4"/><feBlend in2="result2" mode="screen" in="result2" result="fbSourceGraphic"/><feColorMatrix result="fbSourceGraphicAlpha" in="fbSourceGraphic" values="0 0 0 -1 0 0 0 0 -1 0 0 0 0 -1 0 0 0 0 1 0 "/><feGaussianBlur stdDeviation=".4" result="blur" in="fbSourceGraphic"/><feComposite in2="blur" in="fbSourceGraphic" operator="in" result="composite1"/><feComposite in2="composite1" in="composite1" k2="1" operator="in" result="fbSourceGraphic"/><feColorMatrix result="fbSourceGraphicAlpha" in="fbSourceGraphic" values="0 0 0 -1 0 0 0 0 -1 0 0 0 0 -1 0 0 0 0 1 0 "/><feGaussianBlur stdDeviation=".4" result="blur" in="fbSourceGraphic"/><feComposite in2="blur" in="fbSourceGraphic" operator="in" result="composite1"/><feComposite in2="composite1" in="composite1" k2="1" operator="in" result="fbSourceGraphic"/><feColorMatrix result="fbSourceGraphicAlpha" in="fbSourceGraphic" values="0 0 0 -1 0 0 0 0 -1 0 0 0 0 -1 0 0 0 0 1 0 "/><feGaussianBlur stdDeviation=".72" result="blur" in="fbSourceGraphic"/><feComposite in2="blur" in="fbSourceGraphic" operator="in" result="composite1"/><feComposite in2="composite1" in="composite1" k2="1" operator="in" result="fbSourceGraphic"/><feColorMatrix result="fbSourceGraphicAlpha" in="fbSourceGraphic" values="0 0 0 -1 0 0 0 0 -1 0 0 0 0 -1 0 0 0 0 1 0 "/><feTurbulence numOctaves="5" seed="0" type="fractalNoise" baseFrequency=".08" in="fbSourceGraphic"/><feGaussianBlur stdDeviation=".5" result="result91"/><feDisplacementMap in2="result91" scale="20" yChannelSelector="G" xChannelSelector="R" in="fbSourceGraphic" result="result1"/><feComposite in2="fbSourceGraphic" in="result1" operator="atop" result="fbSourceGraphic"/><feColorMatrix result="fbSourceGraphicAlpha" in="fbSourceGraphic" values="0 0 0 -1 0 0 0 0 -1 0 0 0 0 -1 0 0 0 0 1 0 "/><feTurbulence numOctaves="5" seed="0" type="fractalNoise" baseFrequency=".08" in="fbSourceGraphic"/><feGaussianBlur stdDeviation=".5" result="result91"/><feDisplacementMap in2="result91" scale="20" yChannelSelector="G" xChannelSelector="R" in="fbSourceGraphic" result="result1"/><feComposite in2="fbSourceGraphic" in="result1" operator="atop"/></filter></defs><g color="#000"><path d="m106.21 138.48c-.066.348.022 1.049.041.914.058-.366-.05-.45-.029-.861-.007-.07.005-.293-.012-.052m.036.224l-.001-.064zm.066.018c-.064.535.074.417.027.15-.025.056-.005-.27-.027-.15m-6.276 0c.043.127-.016-.065 0 0m6.238.196c.003-.239.002-.214 0 0m-6.187-.147c-.041.19.003.098 0 0m14.459.061c-.023.211.013-.018 0 0m-7.548.181c.021-.144.001-.291 0 0m-6.856.196c-.039.318-.104.042-.127.469-.006-.104-.025-.366-.044-.543-.045.376-.079.244-.088.583.02.577-.051-.188-.033.742-.005.48-.018 1.044.042 1.425.004.315.059.893-.001.632-.051-.313-.129-.351-.146-.961-.056-.058.018-.203.006-.452-.037-.733-.013.496-.069.429-.061-.187.009.43.011.527-.006.6-.069.311-.019.107-.044-.498-.015-.149-.052.15-.034.044-.11.102-.124-.12.037-.777-.067-.242-.06.227.044.401.098.799.001 1.193.004.204.142-.075.07.46-.025.256-.037.797-.069 1.151-.033.512.03.559.025 1.026-.09-.026-.028.922-.097.773-.023.264-.016.742-.043.846.075-.414.072-.183.011.126.05.259.07.674.109.975.077.28-.018-.496.02-.632.045.051.053.259.08.549.018.285.039 1.119-.03 1.018-.03.352-.008.735.045.831.042.613.139-.062.027-.258-.036-.129.004-1.14.008-.53.091-.361.046.365.117.521.06-.014-.027.241.062.086.006.234.005.857-.025.389-.071-.352-.087.427 0 .172-.016.467-.042.8-.012.794.036-.163-.007-.618.044-.086-.065.325.012 1.04.001.248.026-.166.014-.882.072-.699-.013.467-.027.512-.063.84.035-.03.094.356.089-.264.013-.662-.02.429.036.35.011-.631.079.033.078.5.047.079.111.054.107-.313-.025-.67.087-.138.102-.552-.007-.199-.074.001-.065-.677-.014.506-.172-.049-.086.551.039.398-.066.127-.084.194-.078-.314.042-.25-.016-.754.045.08.069-1.109.075-.307.05-.192-.002.662.053.27.034-.527.079-.343.129-.254 0 .473.031.715.045.162.061.234.003.798.019 1.048.094-.216.04.605.083.503.052-.425.101.12.158-.028.073-.099-.057.822.053.386-.023.954.047.218.073.143.027.48.046-.606.109-.324.098.149.004-.238-.011-.607.028-.113.105.422.151.018.047-.421.106.185.105-.098-.046-.455.099-.794.073-.26-.014.388.007.643-.032.968-.048.203.079.024.08-.135.021.585.031-.451.061.107.009-.171.032-.729-.03-.503-.072.353-.011-.386.007-.251.027.049.092.175.031-.258-.005-.484.083-.668.094-.03-.074.402-.011.166-.013.536-.032.342.044.257.061.622-.002-.229-.004-.913.008-.484.052.059.083-.412.09-.576-.014-.245-.037-.896.023-.472.061.135.015.528-.005.583-.042.555.02.502.027.871-.041.542.045.366.043.622.008.481.038-.428-.003-.537.017-.387-.082-.666-.043-1.058.051.013.049.471.064.769.042.228-.008-.569.084-.42.036-.23-.042-.128-.025-.512.052.159.103-.358.135-.045.025.307.035-.085.042.167 0 .444.058-.0001.069.389-.065.127.008.728-.05.368-.018-.118-.061-.079-.047.089.005.257.018.42.045-.055.013.24-.035.986.034.898.003-.359-.011-.428.009-.868-.015-.28.071-.024.027-.555.006-.532.045-.11.025.218.025.126.083-.175.049.294-.011.374.067.368.049.064.07.455-.059.256-.055.53.057.47.149.042.124-.573-.019-.072-.061.042-.083-.221.006-.272-.005-.39.025-.727-.033.151-.073.392-.072.074-.003-.088-.052-.126-.015-.595-.05-.207.065.016.009.297.026-.386.13-.257.045.043-.073.037.057.221.084-.034.031-.11.058.604.032.536-.024-.613-.072-.385-.045.193.013.278.114-.021.056.447.044.095.025-.213.055-.269.006.013.083-.09.026.351-.0001.117.028.456.078.593.084.077.048-.09.042-.291.047-.266.076.721.095.001-.016-.26.052-.241.077-.509-.041-.535-.018-.47-.008-.825.026-.267.016.812.062.034-.001.566.019.26.046.625-.058.459.001.701.037.469.013-.323.055-.041.028.132-.017-.115-.043.659.013.411-.002-.357.118-.424.04-.656-.003-.649.007-.378.027-.089-.001-.059.045.039.029.077-.033.294.018.6.076.334.015-.004-.058-.313-.034-.411.044-.263-.052.063-.069-.236-.011-.694-.046-.217-.075-.073-.047.63-.07-.645-.03-.209.032.496.031-.274.022-.316.041.062.106-.856.142-.319.02.542.059.697.095.279.038.178-.029.796.055.094.047-.521.112-.292.149.154-.096.135.016.447.031.69-.041.861.106-.138.071.441-.013.214.141.097.067-.254-.029-.437.125-.085.036-.313-.7.177-.082-.533-.058-.579.051.345.114.072.031-.156-.04-.006-.09-.794 0-.671.07-.13.035 1.287.099.441.05-.371.091-.034.058.426-.055.108-.142.141-.045.472-.001.414.033.592.049.089-.017.733-.004.76.042.179.029-.242-.001-.594.02-.96-.062-.314-.029-.961.007-.21.007.269.023 1.047.072.799.076.185.067-.455.099-.515.036.398.068.231.032.071-.003-.051.08-.549.076-.018.04.08.074.664.078.543.019-.474.002-1.116.055-1.456.089-.216.04.223-.001.368.062.192-.024 1.085.063 1.098.013.644.133.496.136-.03-.013-.438-.082-.807-.091-.138-.075.333-.046-.633.018-.638.064-.155.143.182.106.714.004.735.079-.208.055-.524.001-.602.162-.384.082.184.073.263.111-.515.179-.497.002.149-.005.74.059.843.046-.02.149-.276.121-.766-.096-.451.053-.254.069.052-.063-.084-.017.628.021.65.093.17.032-.359.059-.684.057-.228.184.492.193-.08-.052-.485.03-.996.02-.248.017.701.072.218.115.104.016-.217.059-.638.052.115-.048.523.126.071.066.636-.035-.341-.115.336-.043.368.054-.004.106 1.048.149.337.036-.786-.105-.171-.091-.604.034-.869.06-.169.114.153.062.004.027.298.08.451.042-.514-.041-.816-.079-1.058 0-.361.111-1.057.107-.359-.025.918.104-.258.087.533.014-.018.074-.205.093-.002.086.412.097.016.084-.34.07-.1.103-.967.177-.362-.066-.038-.009.604-.017.996-.023.144-.114 1.251-.056.981.024-.282.215-.24.101-.561-.085-.461.051-.685.09-.589-.038-.68.092-.205.081.172-.008.583.088 1.26.152.751.046-.085.124-.602.145.001.001-.444.038-.654.106-.441-.018-.227-.124-.972-.026-.871.069-.077.131.346.204.406.066.285.109-.13.027-.434-.074-.416.041-.817.057-.6.046.15.086.522.076.782.016.475-.016.726.032.849.008-.403.089-.642.02-.665.042-.568.047.512.062.898.046-.312.095.004.139.006.038.211-.005-.074.018-.131-.011.011-.02-.0001.026-.139-.011-.316.002-.353.021-.399-.047.876.016.253.021.224.004.0001-.027-.73.001-.61-.007-.083.049-.194.079-.254.051.372.047-.44.028-.245.02-.509-.03-.283.006-.55.016-.167.027-.176.054-.029.061-.312.022.656.057.245.034.088-.019.447-.036.267-.022-.289-.001.444-.046.184-.003.22-.036-.073.014.419.014.417.074-.298.071.29-.032.205.054.154.037-.331.086-.278-.007-.683.025-.758.067.244.008.67.072.258-.072.261.031-.645.044-.001.011-.381.068.204.034.291-.014-.042-.024-.214-.047-.341-.025-.03 0 .395.005.295-.006.422-.018.395-.0001.558-.012-.209.044.331.067.38-.035.492-.0001.228.005.016.036-.219.055.185.059.428.031.54-.001-.272.043.462.009-.174-.001-.709.025-.075-.02-.512.014-.99.007-.955.042.056.017.519.013.52.001.274.017-.379.033-.21-.018.204-.009.278.005.351.016-.236 0 .117.034-.026-.031-.162.003-.21-.003-.161.05.497.015-.694.034.077.037.206.007.392.042.268.09.213-.052-.239.035-.418-.004.475.038-.38 0-.159-.001.113.007-.316.013-.742.028.458-.018-.474-.007-.239-.031-.165.009-.133.025-.172-.003-.132-.004-.444.06-.044.059.341-.088.35.013.518.022.309-.037.032.029.629.043-.452.054-.887.007-.684.003-.321-.023.333-.029-.288-.058-.559.022.018-.014-.383-.043.019-.062-.479 0-.576-.024.574.11-.281.046.491-.032-.448-.016.264-.012.211.014.31.046-.112.088.258.007.569.006-.155.028.208.043.006.085.276.009.184.058.287-.049.431.04.294.041-.818.027.498-.021.288-.023.257.083.524.096.229-.026-.19.041.063-.04-.358.051.509-.019-1.034.025-.287.017-.449-.003-.45-.03-.46-.06.177.009-.053-.044-.086-.041-.177.051-.135-.021-.132.033-.068.045-.294.088-.013.028.036-.049-.883.024-.245.035-.546-.038.856.013.334.034-.46.148.345.098.46-.002-.019-.035.084-.043.169.036.168-.071.002 0 .438.003-.477.003.936.032.221-.029-.855.026-.12.05-.075.037-.846.007-.205.077-.517.018-.311-.077.449-.028-.437.037-.868-.037.856.077.041.026-.293.003-.201.024-.092.013-.186.03-.245-.002-.172.038-.383-.012-.122-.046-.245.005.26-.041-.147-.037-.117.044-.095.002-.334.031-.056.055-.077.041.227.079.166 0 .055.041-.16.031.324-.028-.034-.038-.011-.063.194-.015.141.055-.12.044.133.027.027.028-.144.077.042.037.174.009.333-.004.212-.038-.033-.028.067-.061-.109-.025-.126-.024.438-.08.067-.033.156.026.268-.005.385-.023-.138-.02-.085-.034.001-.052.079 0 .393.029.326.0001-.152.031.35.052-.403-.038.807.053.072.092-.056.047-.004.005.29.04.317.063.174.021-.396.064-.475-.021.039-.025-.19-.002-.058-.006-.255.005.019.045-.196.014.323.004.194.029.346.005.056.099.573.051.176.016-.513.075-.112.088-.422.093.208.1-.229.128-.085-.058-.743.056.124.057-.027-.023.2.006-.035-.043.423.083-.382-.026.177.043-.121.072-.189-.06.185.034-.262-.029.033-.017-.05-.035-.114.057-.093.011-.368.05-.377.012-.295-.0001-.156.036-.024-.047-.123-.002.058-.007.193.001.305-.018.232-.046.233-.019.099.047.127.049.049.005-.21.034-.009.035-.077.048.167-.001-.189-.019-.212-.023-.29.039-.135.026.03.056-.491-.021.759.047.399-.063.48.041.95.028.28.059-.073-.076-.264.034-.436.084 0 .098 1.299.139.283.052.225.071-.238.11-.218-.037.614.061.36.002.49.046.558.044-.488.048-.107.015-.465-.038.217-.038-.208.008-.286.06.146.047-.405.077.763-.046-.662.03-.233-.052-.119.028-.185.016.028-.022.486.091-.457.083.089-.022-.186-.013.183-.002.166.006.151.022-.138.04.048.048.51-.07-.109-.074.316-.028-.12-.042-.042-.045.313.0001.039-.02.417-.005.469.003.402.029-.29.013-.411.013.139.001-.153.018-.052.0001.108.063.062.024.018.018 0 .004-.194.022-.288.043-.295.04.282.03.497-.013.011.085.412.047-.178.012-.194.035-.438.051-.384.063-.161.06-.325.058-.547.067-.097.104.988.143.474.047.692-.034.309.064.684-.018-.621.072-.646.034-.294.138-.024-.079.088.031-.435.004.212.088-.125.057.183.044.053.022.152.04.212.039.138-.012-.134-.008-.319.07.426.133.292.184-.208-.037-.294.004-.385.017-.001-.067.341.016.5.049.083.035.315.108.667.147.04.084.138.137.25.176.101.034-.379.035-.681.077-.372.071.111.156-.022.203.259.069.156.142.157.21-.08.071-.163.121-.155.191.289.062.364.052-.858.113-1 .044.255-.028 1.231.051 1.416.06-.212.054-.022.081-.432.056-.414.102.387.159.276.04-.268.003-.944.069-1.107.085-.292.141.537.183.993.086.378.059-1.093.145-.871.094.084.05 1.539.154 1.232.038-.404.098-1.368.163-.593.027.494.085.892.151.521.056-.235.132.235.155-.413.021-.411.005-.921-.038-1.208.016-.856.121.152.075.541.037.354.104-.863.13-.032-.038.427.011 1.355.07.754-.05-.386-.002-.727.055-.504.027.379.025 1.382.116.967-.004-.51-.052-1.429.05-1.53.09-.025.138.646.164 1.202.067.218.068-1.04.142-.745.019.41.044 1.024.117.717.035.257.054.681.124.383.108.074.115-.707.006-.647-.006-.51-.02-.917-.115-.794-.106-.262.04-1.012.097-.599.06.241.097.959.181.648.049-.11.165-.566.187-.138-.04.319-.046.938-.02 1.327-.051.039.064.317.091.15.062.108.162.208.177-.498.076-.695.094-1.674.185-2.289.051.268.105.262.172.055.029.001.174.911.154-.133-.072-.688-.041-1.743.056-2.18.094-.487-.019-.258-.043-.382.066-.353.093-.955.149-1.392-.002-.498-.074-.774-.023-1.383-.036-.324-.125-.049-.153-.58-.048-.464-.027-1.086 0-1.55-.034-.721-.152-.186-.222-.334-.107-.275-.194-.978-.235-1.781-.036-.498-.094-.857-.141-1.266-.094-.154.031.407.026.837.016.427.007.937-.037 1.248-.003-.651-.058-1.241-.07-1.766.116-.555-.063-.429-.034.307.061.263.061 1.61-.017 1.262.0001-.335-.071-.968-.069-.474.037.727-.035.938-.07.208-.044-.264-.072-.609-.06-.953-.005-.448-.088-1.331-.12-.533-.047.412-.044 1-.063 1.447-.065.242-.131-.188-.2-.089-.06-.148-.064-.453-.129-.696.04.563.012.942-.075.926-.029.725-.129.228-.045-.193.069-.016.015-.296-.029-.242-.028-.055-.045-.581-.106-.386-.042.156-.128-.754-.176.002-.013.789.162.3.163 1.061-.045.581-.134-.166-.193-.248-.03.069-.074-.002-.13.178-.066.305-.112-.493-.137.294-.068.013-.069-.908-.118-1.205-.046-.466-.095.286-.155.069-.085-.352-.186-.158-.253.274-.071.19-.148.246-.218.393-.052-.638-.088-.161-.119.304-.06-.017-.137.145-.204.037-.032-.058-.017-1.016-.099-.776-.037.004-.103.884-.127.233-.034-.276-.08-.7-.123-.519-.062.068-.081.273-.067.667-.024.018-.006-.517-.072-.058-.034 0-.026.45-.093.388-.064.498-.067-.193-.126-.437-.029-.091-.037-.084-.085-.366-.031.163.073.351-.017.379-.007.748-.064.129-.054.202.005.415-.112-.084-.091.674.048.375-.055-.312-.051-.087-.033-.132.073-.554.0001-.819-.026-.236-.089.623-.093.78-.003-.511-.06.572-.046-.277-.015-.487-.065-.694-.108-.459-.004-.411-.022-.286-.031.023-.001-.767-.044-.172-.053-.052-.039-.109-.088.561-.099.052-.039.311-.019.58-.063.011-.023.181.034 1.242-.074.815-.097-.351.05-.062.049-.396.02-.445-.101.557-.121.111-.004-.358-.097.589-.041-.043-.088-.286-.077 1.07-.085-.07-.067-.122-.056.399-.066.559-.054-.219-.157-.529-.143-.988.016-.673-.061 0-.036.116.086-.465-.052.998-.068.325-.022-.101-.034.787-.043.134.017-.422-.154-.159-.141.57.068-.307-.14-.878-.087-1.086-.021.568-.087.137-.098-.333.073.718-.099 1.087-.017.586.031-.021-.163-1.212-.086-.268-.001.741-.032-.771-.075.223-.025 1.111-.04-.178-.065-.229-.02.295-.058.082-.019.266-.081.199-.148.016-.072.739-.04-.0001-.147-.242-.18-.078.027-.842-.078.78-.027-.127.03-.327-.104.973-.094.411.012-.433-.067-.357-.061-.809.089-.34-.017.973.066-.029.047-.263-.089-.627-.047-.145-.107-.185.007-.523.004-.306-.079-.441-.071-.59-.106-.571.016.128-.037.627-.052.291.001-.42-.025-.051-.023-.049-.046.108.05.347-.012.313-.019-.094-.041-.245-.021.052.046.347-.054.426.014.515.012.127 0 .273-.023.435.091-.191-.0001.429-.031-.024-.046.134-.015.043-.005.129-.021.505-.028-.401-.049-.098.033.212-.011.142-.014.064-.002.021-.024.055-.023.242-.011-.056.007-.333-.03-.267.048-.059.042-.027.036-.172.006-.088-.028-.38.001-.147.013.305.021-.089.036-.016.03-.151-.039-.296 0-.362.015.028.019.025.0001-.086-.003-.178.017.057.018-.184.0001-.193-.051-.161-.064-.212.004.483-.06-.675-.008-.097-.062-.389.057-.531-.014-.905-.053.356-.004.58-.037.771.004.324-.059-.581-.127-.571.046.171.055.344.055.835-.067-.698-.048-.15-.02.202.023.389-.016.313-.026.055.042-.077-.026-.036-.029.049.056.023.044 1.03.029.536.008-.395-.05-.341-.058-.355-.011.164-.015.44.006.32-.076.525-.027.142-.065-.191-.009-.056.011-.04.014-.162.009-.146.025.027.02-.156.009-.173.013-.023.015-.187.017.058.023-.078.013-.135.008.093-.035-.187.003-.12.038.144-.016.263.022.334.002-.374-.005-.366-.024-.402-.047-.132.003-.216.006-.454.023-.209-.104-.096-.02-.601-.056.419-.055.254-.07.553.057.361-.066.249-.045.509.016-.351-.069.19-.021.275.049.314.008.319-.013.656.032.7.018-.143-.037.202-.006-.114.056-.213.011-.248-.025-.385-.081-.247-.052-.101.009.295-.011.232.032.224-.013.049-.072.368-.06.067-.014.107-.004-.094.006-.533-.07.221.07-.542 0-.546-.042-.228.028-.892-.046-.606.026.572-.028-.669-.007.086-.032-.325-.061.248-.026.349-.002-.383.027.241.032-.067.003-.253.06.255.003.294-.03.372-.05-.185-.06-.013.004-.235-.043.032-.017-.064-.009.031.032.488.009.392-.02-.081-.018-.076-.001-.254-.028-.106-.067.259-.076.013-.067.234.029.347-.031.418-.015-.279-.007-.018-.003.226.024.164-.068.783-.04.091-.015-.205.025-.222-.002-.245.022-.174-.012.046-.019-.089.055-.132.028-.372-.012-.034-.032-.042.029.164.0001.202-.013.671-.02.508-.074.166-.042.291-.0001-.589-.052-.861.049-.675-.06.249-.065.053-.052.134-.118-.02-.07.395.04.711-.007.61-.042.529-.015.26-.03-.273-.089-.165.022-.095-.075-.544-.037-.002-.049-.354-.061.237-.076.12-.014.205.017-.515.039-.481-.052.016-.091-.495-.061-.702.035-.02.021-.4-.008-.028-.025.476-.05-.16-.052.045-.003.366-.05.058-.035.059-.008.379-.023.713-.039.147.013.706-.07.311-.079.479-.014-.282.084.433.003.456-.003-.244-.045-.88-.038-.828.036.069.107-.636.068-.88-.076-.34-.092.515-.095.865-.047.45-.038 1.292-.081.779.041-.24.032-.784.003-.693.007.381-.032-.339-.041-.125.012.574.009.067.016.738-.057.139-.117.075-.078-.26-.013-.462-.024-.616-.072-.659-.081.233-.128.157-.177.034-.034-.05-.037.759-.069.754-.058-.18-.053-.541-.028-.984.016-.428-.081-.31-.09-.328-.066-.203-.151.568-.054.353.088.127.027.582-.034.35-.061-.04-.066.208-.059.377-.003-.393-.045.187-.064.245-.05-.234-.117.25-.177.236-.05.405-.142.609-.193.126.005-.449.08-1.052-.018-1.271-.12-.309-.002.145-.023.532-.03.756-.098-.865-.165-.291.014.489-.001.893-.089.472-.078-.127-.033-1.234-.138-1.012-.015.132.014.923-.075.806-.074-.271-.083.861-.145.423-.038-.771.092.088.03-.604-.024-.393-.149-.427-.174.083-.051.689-.128.183-.169-.227-.077.166-.102.464-.173-.148-.028-.17-.101.077-.11-.315.013.703-.101.832-.119.153-.011-.245-.068-.97-.04-.249-.022.407-.013-.953-.042-.095.004.419-.139.225-.044.584.103-.144.017.365.035.848-.035.318-.06-.682-.105-.515.022.859-.018.067-.098.308-.057.077-.073-.287-.036-.52-.072.332-.029-.153-.087-.362-.064.042-.039.061-.06-.319-.026-.172-.039.426.011.524.043.254-.007.674-.054.463-.016-.636-.093-.977-.086-.104-.02.351-.051 1.114-.07.334.008-.558-.104-.07-.103-.647.002-.833.104.151.113-.445.021-.753-.102-.524-.123-.027-.048.826-.06-.209-.114-.277-.083.082-.047.708-.132.484.001-.482-.108-.319-.129-.013-.022-.291-.046-.546-.093-.65.028.339-.037.29-.031.727.046.103.108-.066.164.107-.008-.274.055-.591.071-.013-.007.376.103-.346.059.291-.029.038.086.544-.018.57.061.072.098.664.001.399-.05-.338.014-.671-.042-.861-.027.324-.02-.094-.055-.178-.04-.232-.125.083-.043.307.013.179.076-.283.052.261-.039.025-.098.578-.04.215.038.791.042-.063.073-.294.04.162-.025.142.006.57-.019.241-.09.383-.066.803-.028.525-.026-.854-.041-.208-.029.357-.097-.044-.051-.234.022-.408-.03-.463-.032-.68.058-.35-.116-.017-.001.288-.051.205-.075-.061-.06-.359-.039.577-.055.059-.047.067.001-.472.118-.034.056-.727-.036-.056-.019.45-.076.188-.019.126.033.585-.021.888-.05-.082-.052-.636-.009-.42.029.081.016-.429-.022-.429-.064-.079-.048.245-.073.586.016.577-.099.622-.035.162.06-.158-.076-.236-.009-.469.03.009-.026-.267-.023-.233.029.166.062-.398.045-.558-.069-.573-.023.074-.027.331-.031.128-.035-.062-.049.319-.005.253-.082.759-.056.208-.001-.258.063-.059-.016-.472-.066.187-.026-.355-.083-.435-.035-.478-.032.422-.101-.006-.015.023-.007.042-.038-.105.026-.731-.102.064-.045.446.02.368-.062.02.004.437.011.343-.063-.094-.083-.267.022-.109-.05-.469-.038-.101.035.117.011.578.038.757-.011.526-.022-.113-.049.013-.097-.082.028-.196.008-.593-.031-.116-.171-.502-.135-.15-.002.097-.004.31.006.552-.026-.342-.019.399.006.248-.055.319-.064.533-.051-.055.001-.346.044-.835-.019-.644-.023.406-.088-.106-.056-.414-.015-.163-.058.632-.018.751.025.33.094.678.072 1.15-.03.507-.07.329-.091.016-.017-.176.002-.613-.02-.981-.044.225-.046-.22-.086-.08.005.347-.024.049-.038-.239.005.013-.002.237-.011.236-.001-.152-.005.047-.044-.18.025.004.003-.715-.046-.19-.044.243.019.542.016.725-.052-.377-.083-.67-.102-.356.003-.841-.057-.275-.118-.12-.021.221-.08.167-.111.395-.005-.203-.018-.238.024-.349.008.3.068-.361.0001-.374-.003-.014-.017.379-.047.261-.031.087-.086.069-.126-.028-.053-.282-.077.975-.115.095-.041.031-.052.311-.06-.193-.045-.075-.119-.249-.147.273-.055.13.022-.612.028-.491.007.044-.077-.628-.082-.064.043.452-.066.362-.036-.055-.105.168.029.562-.008.558-.083-.332-.132-.109-.055.436.076.117.027.718-.029.456-.012.813-.003-.915-.065-.074-.003-.606-.1-.626-.159-.776-.003-.946-.092.324-.067-.258-.065-.146.003-.83-.079-.408-.015.484-.022.766-.103.378-.032-.189-.115.435-.128-.044-.008-.11.094.109.09-.297.102-.409.005-.505-.046-.641-.039-.11-.055-1.28-.091-.597m.58 2.423c-.006.203.009.032 0 0m.164-.843c.022.042.006-.078 0 0m.537.15c.011.028-.006-.062 0 0m.044-.258c.0001.004 0-.018 0 0m-.019.582c-.009.115.003.231 0 0m.399-.117c-.011-.064-.008.006 0 0m.052-.001c.002-.009-.0001-.001 0 0m.253-.129c-.008-.002-.003.039 0 0m.002-.013c.005-.059-.012-.016 0 0m.592-.028c-.006-.04-.004.122 0 0m.083-.766c.008.076.001-.106 0 0m-.021.825c-.002-.006.0001.017 0 0m.394.871c.016-.031-.013-.074 0 0m1.098-2.419c.003.017.0001-.031 0 0m2.922 1.947c-.004-.132-.007.035 0 0m.5-.325c-.011-.119-.006.078 0 0m.039-.156c-.007.055.006.082 0 0m0 .049c-.005.055.011.013 0 0m.002.03c0 .001.002-.006 0 0m.026-.12c-.002-.24-.008.051 0 0m.13-.052c-.019-.241-.026.034 0 0m-.031-.408c.002-.016-.005-.004 0 0m.421-.46c.028.376.004-.458.0001-.037zm-.051 1.137c-.007.035.003.038 0 0m.027.058c-.002-.159-.021-.163-.013-.049.007-.165-.009.194.013.049m.292.001c.013.146.015.066 0 0m.4.641c-.022.004-.018.071 0 0m3.922-1.744c.008.027-.002-.047 0 0m1.526.46c.002-.013-.003-.02 0 0m.163-1.373c.007.02-.002-.104 0 0m-.003.224c-.003.09.004-.023 0 0m-4.647 12.643c-.038-.083.001.249 0 0m-.121-.067c-.007.143.014.03 0 0m-1.01.947c.008.243.053.096 0 0m-.143-1.395c-.005-.11-.009.061 0 0m-.012.107c-.004.046.002.011 0 0m0 .018c.009.014.0001-.044 0 0m.004-.001c.017-.023-.003-.106 0 0m-.002.046c.009.037.008-.117 0 0m-.346-.052c-.043.148-.006.32 0 0m-.223-.098c-.011.273.005-.16 0 0m-.091.034c.02.305.037-.206 0 0m-.019.267c.001.024-.002-.078 0 0m-.157 1.361c-.001.096.006.058 0 0m-.018.024c-.021.308.001.004 0 0m-.02-.515c-.0001-.053-.005.001 0 0m-.448-1.211c-.055-.204-.009.29 0 0m-.025-.064c-.034.209-.021.226 0 0m.057-.202c-.016.078.014.154 0 0m-1.988 1.49c-.011-.042-.0001.081 0 0m-2.02-1.116c-.001.001.002.181 0 0m-.083.647c-.001-.044-.003.062 0 0m-.633-.359c-.008.044.013.043 0 0m-.019.399c-.005-.041-.003.094 0 0m.045-.12c-.0001-.081-.007.078 0 0m.125.454c-.001.033.003.067 0 0m-.005.046c-.001.058.007.017 0 0m-.004.002c-.003-.002.0001.023 0 0m.014.248c.009.055-.0001-.081 0 0m-.166.083c.003-.097-.013.036 0 0m-.168-.978c.009.225.029.216 0 0m.014.172c-.029.608.078.687.014.089l-.001-.061zm-.496-.058c-.0001.027.002.0001 0 0m-.141.5c-.0001.067.003-.009 0 0m-.087.052c.0001-.07-.003-.017 0 0m-.0001-.049c-.0001-.06-.005.031 0 0m-.283-.714c.007-.031-.0001-.071 0 0m-.034-.193c0 .074.008-.004 0 0m.002.285c-.006.001.004.031 0 0m-.086.457c-.007.0001-.004.028 0 0m-.148.141c-.003.048.002.009 0 0m-.066.267c-.024-.139-.002.086 0 0m-1.151-.892c.014.036.009-.02 0 0m-.046.129c.001.081.004-.134 0 0m-.1-.282c.036-.283-.009-.132 0 0m.016-.205c.008-.092-.009.032 0 0m-.087-.546c.0001.033.002-.019 0 0m-.253-2.566c-.0001-.025-.002.034 0 0m-.044-.141c-.006-.013.002.033 0 0m.215-6.122c-.008-.13-.019.096 0 0" fill="#374845" filter="url(#4)"/><g stroke-width=".419"><path transform="matrix(.44212-.34012.34012.44212 26.1 143.07)" d="m120.04 92.53l84.63-140.73 8.753 24.615z" fill="#000080" filter="url(#0)"/><path transform="matrix(-.44212-.34012-.34012.44212 188.85 136.14)" d="m120.04 92.53c31.13-38.704 62.26-77.41 93.39-116.11-2.92-8.204-5.84-16.409-8.76-24.613-28.21 46.909-56.42 93.82-84.63 140.73" fill="#87aade" filter="url(#1)"/><path transform="matrix(-.44212.34012-.34012-.44212 191.6 151.04)" d="m120.04 92.53l84.63-140.73 8.753 24.615z" fill="#000080" filter="url(#3)"/><path transform="matrix(.44212.34012.34012-.44212 28.852 157.97)" d="m120.04 92.53c31.13-38.704 62.26-77.41 93.39-116.11-2.92-8.204-5.84-16.409-8.76-24.613-28.21 46.909-56.42 93.82-84.63 140.73" fill="#87aade" filter="url(#2)"/></g></g></svg>
