<svg xmlns="http://www.w3.org/2000/svg" width="160" height="160" viewBox="0 0 160 160" role="img" aria-labelledby="title desc">
  <title id="title">Terran Empire emblem</title>
  <desc id="desc">A blue and green Earth protected by a silver command chevron within a gold-rimmed navy crest.</desc>
  <defs>
    <radialGradient id="space" cx="50%" cy="38%" r="68%">
      <stop offset="0" stop-color="#173b61"/>
      <stop offset="1" stop-color="#050b15"/>
    </radialGradient>
    <radialGradient id="ocean" cx="34%" cy="28%" r="78%">
      <stop offset="0" stop-color="#59c8ee"/>
      <stop offset="0.5" stop-color="#176aa5"/>
      <stop offset="1" stop-color="#092d58"/>
    </radialGradient>
    <linearGradient id="steel" x1="0" y1="0" x2="1" y2="1">
      <stop offset="0" stop-color="#f4fbff"/>
      <stop offset="0.48" stop-color="#91adc2"/>
      <stop offset="1" stop-color="#41566b"/>
    </linearGradient>
    <filter id="glow" x="-30%" y="-30%" width="160%" height="160%">
      <feGaussianBlur stdDeviation="2.5" result="blur"/>
      <feMerge><feMergeNode in="blur"/><feMergeNode in="SourceGraphic"/></feMerge>
    </filter>
  </defs>
  <circle cx="80" cy="80" r="75" fill="#d8a541"/>
  <circle cx="80" cy="80" r="69" fill="url(#space)" stroke="#79d8f0" stroke-width="2"/>
  <g fill="#b7ecff" opacity=".9">
    <circle cx="41" cy="34" r="2"/><circle cx="120" cy="38" r="1.7"/><circle cx="132" cy="74" r="1.5"/>
    <circle cx="29" cy="83" r="1.4"/><circle cx="111" cy="121" r="1.4"/>
  </g>
  <circle cx="80" cy="78" r="43" fill="url(#ocean)" stroke="#8ce8ff" stroke-width="2.5" filter="url(#glow)"/>
  <g fill="#6ebd73" stroke="#b6d97d" stroke-width="1.2" stroke-linejoin="round">
    <path d="M48 51l10-9 13 1 6 8-5 6-12 1-3 8-8-2-5-7z"/>
    <path d="M73 61l8-6 13 2 7 8 13 4 4 10-8 8-8-3-6 7-3 15-8 10-6-12 2-12-7-9-8-2-4-11z"/>
    <path d="M104 99l10-2 5 7-7 8-10-4z"/>
  </g>
  <path d="M80 25l9 16-9-5-9 5z" fill="#f4c75a"/>
  <path d="M24 91l17 4c5 18 19 30 39 37-27-2-48-17-56-41zm112 0l-17 4c-5 18-19 30-39 37 27-2 48-17 56-41z" fill="url(#steel)" stroke="#d9eff8" stroke-width="1.5"/>
  <path d="M37 119l18 4 25 20 25-20 18-4-43 35z" fill="#d8a541" stroke="#ffe297" stroke-width="1.5"/>
</svg>
