<svg xmlns="http://www.w3.org/2000/svg" viewBox="0 0 100 100" xmlns:xlink="http://www.w3.org/1999/xlink"><defs><clipPath><path d="m2194.14 1722.73c-1.31-.12-5.76 2.2-2.74 2.9 1.25.29 3.47-2.83 2.74-2.9"/></clipPath><clipPath><path d="m0 841.89h595.28v-841.89h-595.28v841.89"/></clipPath><clipPath><path d="m2174.69 1733.84c-1.31-.12-5.76 2.2-2.74 2.9 1.25.29 3.47-2.83 2.74-2.9"/></clipPath><clipPath><path d="m2226.34 1781.65c-1.52-.84-28.11-17.84-33.81-19.71-3.55-1.16-.74 1.61 1.87 3.03 1.58.86 3.08 1.63 3.08 1.63 0 0 23.71 14.42 27.42 16.24 3.71 1.82 2.95-.35 1.43-1.19z"/></clipPath><clipPath><path d="m2220.59 1784.78c-1.52-.84-28.11-17.84-33.81-19.71-3.55-1.16-.74 1.61 1.87 3.03 1.58.86 3.08 1.63 3.08 1.63 0 0 23.71 14.42 27.42 16.24 3.71 1.82 2.95-.35 1.43-1.19z"/></clipPath><clipPath><path d="m2244.05 1740.52c1.31-.12 5.76 2.2 2.74 2.9-1.25.29-3.47-2.83-2.74-2.9"/></clipPath><clipPath><path d="m2106.94 1672.96c-1.57-.91-20.05-12.8-25.95-14.84-3.68-1.28-.8 1.66 1.9 3.19 1.63.93 3.18 1.76 3.18 1.76 0 0 15.53 9.15 19.36 11.12 3.83 1.97 3.08-.31 1.51-1.22z"/></clipPath><clipPath><path d="m2209.24 1720.41c1.31-.12 5.76 2.2 2.74 2.9-1.25.29-3.47-2.83-2.74-2.9"/></clipPath><clipPath><path d="m2085.27 1677.41c-1.57-.84-6.65-6.7-2.83-5.03 1.58.69 5.13 2.79 8.75 5.02.03 1.42.25 2.94.37 3.98-2.98-1.67-5.4-3.49-6.28-3.96z"/></clipPath><clipPath><path d="m1967.23 1690.52c-6.66 0-11.49-3.1-11.49-6.39 0-3.29 4.83-6.39 11.49-6.39 6.66 0 11.49 3.1 11.49 6.39 0 3.29-4.83 6.39-11.49 6.39"/></clipPath><clipPath><path d="m1976.57 1672.51c-6.66 0-11.49-3.1-11.49-6.39 0-3.29 4.83-6.39 11.49-6.39 6.66 0 11.49 3.1 11.49 6.39 0 3.29-4.83 6.39-11.49 6.39"/></clipPath><clipPath><path d="m2232.1 1778.52c-1.52-.84-28.11-17.84-33.81-19.71-3.55-1.16-.74 1.61 1.87 3.03 1.58.86 3.08 1.63 3.08 1.63 0 0 23.71 14.42 27.42 16.24 3.71 1.82 2.95-.35 1.43-1.19z"/></clipPath><clipPath><path d="m2102.44 1877.74c0 0 4.87-5.35 14.27-5.35 9.4 0 14.39 5.64 14.39 5.64 0 0 .13-.75-.57-1.61-.7-.85-6.04-5.27-13.81-5.27-7.77 0-13.81 5.26-13.81 5.26l-.46 1.32z"/></clipPath><clipPath><path d="m2237.85 1775.39c-1.52-.84-28.11-17.84-33.81-19.71-3.55-1.16-.74 1.61 1.87 3.03 1.58.86 3.08 1.63 3.08 1.63 0 0 23.71 14.42 27.42 16.24 3.71 1.82 2.95-.35 1.43-1.19z"/></clipPath><clipPath><path d="m2068.57 1858.24c-1.15-12.55 21.85-22.53 48.66-22.49 27.21-.04 50.21 9.94 48.66 22.49 1.56.59-.66.59-2.16 0 1.5-10.84-19.28-20.78-46.49-20.79-26.81.01-47.59 9.94-46.5 20.79-1.09.59-3.32.59-2.16 0z"/></clipPath><clipPath><path d="m2080.31 1830.8c0 0 12.69-11.28 37.17-11.28 24.48 0 37.47 11.89 37.47 11.89 0 0 .33-1.58-1.49-3.38-1.83-1.8-15.73-11.09-35.98-11.09-20.25 0-35.98 11.08-35.98 11.08l-1.19 2.79z"/></clipPath><clipPath><path d="m2079.38 1764.68c-.9-12.55 17.08-22.53 38.02-22.49 21.26-.04 39.24 9.94 38.02 22.49 1.22.59-.52.59-1.69 0 1.17-10.84-15.07-20.78-36.33-20.79-20.95.01-37.19 9.94-36.33 20.79-.85.59-2.59.59-1.69 0"/></clipPath><clipPath><path d="m2086.65 1875.29c.91-3.05 8.16-5.18 10.28-12.8 2.12-7.62 3.32-12.19-4.53-31.69-7.86-19.5 1.21-40.53-.3-52.41-1.51-11.88-1.51-12.19-7.56-21.64-6.04-9.45 3.02-15.85 4.53-20.11 1.51-4.27-4.23-10.97-4.23-10.97 0 0-8.16 4.57-8.76 13.1-.6 8.53.91 24.07.91 24.07 0 0 4.23 3.96 4.23 9.45 0 5.49 1.18 59.04.29 60.15-.89 1.11-6.63 5.98-8.14 12.99-1.51 7.01-3.32 12.19-1.81 15.54 1.51 3.35 3.63 8.23 7.56 11.28 3.93 3.05 7.56 3.05 7.56 3.05z"/></clipPath><clipPath><path d="m2176.46 1757.7c1.44-.57 10.99-6.17 12.55-6.76l-.01.14c2.75-1.18 7.15-3.41 7.96-3.75 1.45-.6 5.07-4.8 1.52-3.53-1.32.47-5.89 2.54-9.22 4.07-4.34 2.02-15.64 8.03-15.64 8.03 0 0 .65 2.66 2.84 1.79z"/></clipPath><clipPath><path d="m2207.63 1747.03c-1.51-.81-6.39-6.43-2.72-4.83 1.51.66 4.92 2.68 8.4 4.82.03 1.36.24 2.82.36 3.82-2.86-1.61-5.18-3.35-6.03-3.8z"/></clipPath><clipPath><path d="m2245.85 1767c-1.51-.87-5.96-4.31-11.62-6.28-3.53-1.23-.76 1.59 1.82 3.06 1.56.89 3.06 1.69 3.06 1.69 0 0 1.61.81 5.29 2.7 3.68 1.89 2.96-.3 1.45-1.17"/></clipPath><clipPath><path d="m2171.68 1741.11c1.49-.79 19.21-11.37 24.56-12.83 3.33-.91 2.17 1.28-.37 2.6-1.54.8-3 1.5-3 1.5 0 0-14.74 7.97-18.33 9.62-3.59 1.65-4.35-.1-2.86-.89"/></clipPath><clipPath><path d="m2228.43 1742.76c-1.51-.87-19.25-12.28-24.91-14.25-3.53-1.23-.76 1.59 1.82 3.06 1.56.89 3.06 1.69 3.06 1.69 0 0 14.9 8.78 18.58 10.67 3.68 1.89 2.96-.3 1.45-1.17"/></clipPath><clipPath><path d="m2173.95 1761.06c1.49-.79 19.21-11.37 24.56-12.83 3.33-.91 2.17 1.28-.37 2.6-1.54.8-3 1.5-3 1.5 0 0-14.74 7.97-18.33 9.62-3.59 1.65-4.35-.1-2.86-.89"/></clipPath><clipPath><path d="m2047.81 1671.24c1.55-.82 20.01-11.85 25.59-13.37 3.47-.95 2.27 1.33-.39 2.71-1.6.83-3.13 1.57-3.13 1.57 0 0-15.36 8.31-19.1 10.02-3.74 1.72-4.53-.11-2.98-.93z"/></clipPath><clipPath><path d="m2014.76 2020.14l1.99-1.21c0 0 1.91-.97 3.9-2.06 3.3-1.8 6.86-5.3 2.37-3.83-2.02.66-6.11 2.83-11 5.62l2.74 1.48"/></clipPath><clipPath><path d="m2050.18 1692.02c1.55-.82 20.01-11.85 25.59-13.37 3.47-.95 2.27 1.33-.39 2.71-1.6.83-3.13 1.57-3.13 1.57 0 0-15.36 8.31-19.1 10.02-3.74 1.72-4.53-.11-2.98-.93z"/></clipPath><clipPath><path d="m2007.45 2016.2l2.02-1.23c0 0 1.91-.97 3.9-2.06 3.3-1.8 6.86-5.3 2.37-3.83-2.03.66-6.13 2.84-11.03 5.64l2.74 1.48z"/></clipPath><clipPath><path d="m1992.84 2008.32l2.08-1.26c0 0 1.91-.97 3.9-2.06 3.3-1.8 6.86-5.3 2.37-3.83-2.03.67-6.16 2.85-11.09 5.68l2.74 1.48z"/></clipPath><clipPath><path d="m2000.15 2012.26l2.05-1.24c0 0 1.91-.97 3.9-2.06 3.3-1.8 6.86-5.3 2.37-3.83-2.03.66-6.15 2.84-11.06 5.66l2.74 1.48z"/></clipPath><clipPath><path d="m2038.31 1973.54c-.93.08 1.88 4.03 3.46 3.66 3.83-.88-1.81-3.81-3.46-3.66"/></clipPath><clipPath><path d="m2036.08 2003.71c.84.33 1.5.25 2.01-.01.72.59 2.15.17 2.15.17 0 0-.01-8.76-.24-12.01-.19-2.49-.47-5.89-.65-6.82-.48-2.51-2.23 1.19-2.1 2.25.07.6.17 3.96.38 5.98.23.69.09 4.46.03 7.12-3.1-1.64-9.19-4.84-13.82-7.16.42-2.82 1.04-7.09 1.22-9.16.21-2.49.46-5.89.43-6.84-.09-2.55-2.38.82-2.42 1.89-.02.6-.45 3.93-.56 5.97l.11-.05c.01.76-.71 4.39-1.18 7-.58-.28-1.1-.53-1.57-.75-4.21-1.94-9.99-4.56-11.66-5.15-4.49-1.6.08 3.7 1.92 4.47 1.04.43 6.59 3.24 10.07 4.74l-.02-.18c1.97.74 14.05 7.83 15.87 8.55z"/></clipPath><clipPath><path d="m2013.72 1959.49c-.93.08 1.88 4.03 3.46 3.66 3.83-.88-1.81-3.81-3.46-3.66"/></clipPath><clipPath><path d="m2039.25 2007.95c-1.88-1-24.29-14.38-31.06-16.23-4.22-1.15-2.75 1.62.47 3.29 1.95 1.01 3.8 1.9 3.8 1.9 0 0 18.64 10.08 23.18 12.17 4.54 2.08 5.5-.13 3.61-1.12z"/></clipPath><clipPath><path d="m1950.59 1981.98c-1.65-.15-7.29 2.78-3.46 3.66 1.58.36 4.39-3.58 3.46-3.66"/></clipPath><clipPath><path d="m1994.62 1956.55c-1.65-.15-7.29 2.78-3.46 3.66 1.58.36 4.39-3.58 3.46-3.66"/></clipPath><clipPath><path d="m2042.12 1982.73c-1.88-.99-24.29-14.38-31.06-16.23-4.22-1.15-2.75 1.62.47 3.29 1.95 1.01 3.8 1.9 3.8 1.9 0 0 18.64 10.08 23.18 12.17 4.54 2.08 5.5-.13 3.61-1.12z"/></clipPath><clipPath><path d="m2110.76 1710.22c-1.59-.88-29.29-18.59-35.22-20.53-3.7-1.21-.77 1.67 1.95 3.16 1.64.9 3.21 1.7 3.21 1.7 0 0 24.7 15.02 28.57 16.92 3.87 1.9 3.08-.36 1.49-1.24z"/></clipPath><clipPath><path d="m1970.35 1984.82c-1.54.89-2.42 2.85-.29 2.34l9.85-5.17c7.04-4.04 15.77-9.18 15.77-9.18 0 0 1.89-1.01 3.86-2.13 3.27-1.86 6.76-5.42 2.3-3.87-7.16 2.49-29.59 16.92-31.5 18.02z"/></clipPath><clipPath><path d="m2116.76 1706.95c-1.59-.88-29.29-18.59-35.22-20.53-3.7-1.21-.77 1.67 1.95 3.16 1.64.9 3.21 1.7 3.21 1.7 0 0 24.7 15.02 28.57 16.92 3.87 1.9 3.08-.36 1.49-1.24z"/></clipPath><clipPath><path d="m2125.1 1698.21c-1.57-.91-6.21-4.5-12.1-6.54-3.68-1.28-.8 1.66 1.9 3.19 1.63.93 3.18 1.76 3.18 1.76 0 0 1.68.85 5.51 2.81 3.83 1.97 3.08-.31 1.51-1.22"/></clipPath><clipPath><path d="m2052.79 1688.52c1.51-.59 11.46-6.43 13.08-7.04l-.02.15c2.87-1.23 7.45-3.55 8.3-3.9 1.51-.63 5.28-5 1.58-3.68-1.38.49-6.14 2.65-9.61 4.24-4.52 2.1-16.29 8.36-16.29 8.36 0 0 .67 2.77 2.96 1.87"/></clipPath><clipPath><path d="m2104.77 1713.48c-1.59-.88-29.29-18.59-35.22-20.53-3.7-1.21-.77 1.67 1.95 3.16 1.64.9 3.21 1.7 3.21 1.7 0 0 24.7 15.02 28.57 16.92 3.87 1.9 3.08-.36 1.49-1.24z"/></clipPath><clipPath><path d="m1996.66 1990.22c1.91-1.02 8.08-8.13 3.44-6.11-1.91.83-6.22 3.38-10.62 6.09-.04 1.73-.3 3.57-.45 4.83 3.62-2.03 6.55-4.23 7.63-4.81"/></clipPath><clipPath><path d="m2098.77 1716.74c-1.59-.88-29.29-18.59-35.22-20.53-3.7-1.21-.77 1.67 1.95 3.16 1.64.9 3.21 1.7 3.21 1.7 0 0 24.7 15.02 28.57 16.92 3.87 1.9 3.08-.36 1.49-1.24z"/></clipPath><clipPath><path d="m2086.95 1649.68c1.36-.12 6 2.29 2.85 3.02-1.3.3-3.62-2.95-2.85-3.02"/></clipPath><clipPath><path d="m2071.21 1652.09c-1.36-.12-6 2.29-2.85 3.02 1.3.3 3.62-2.95 2.85-3.02"/></clipPath><clipPath><path d="m2050.95 1663.67c-1.36-.12-6 2.29-2.85 3.02 1.3.3 3.62-2.95 2.85-3.02"/></clipPath><clipPath><path d="m2123.22 1670.62c1.36-.12 6 2.29 2.85 3.02-1.3.3-3.62-2.95-2.85-3.02"/></clipPath><clipPath><path d="m2107.52 1769.95c-.07 2.02.94 38.67-.6 45.46-.96 4.23-2.02-.23-1.88-3.68.09-2.08.22-4.05.22-4.05 0 0-.17-32.24.23-37.02.4-4.79 2.1-2.73 2.03-.71"/></clipPath><clipPath><path d="m2202.14 2011.69c-.73.07 1.48 3.16 2.72 2.88 3-.69-1.42-2.99-2.72-2.88"/></clipPath><clipPath><path d="m2151.23 1797.41c-1.76.98-32.39 20.73-38.95 22.89-4.09 1.35-.85 1.87 2.16 3.52 1.82-1 3.55-1.9 3.55-1.9 0 0 27.32-16.75 31.59-18.87 4.28-2.12 3.4.4 1.65 1.39z"/></clipPath><clipPath><path d="m2221.43 2022.71c-.73.07 1.48 3.16 2.72 2.88 3-.69-1.42-2.99-2.72-2.88"/></clipPath><clipPath><path d="m2197.21 2056.2l1.59-.96c0 0 1.5-.76 3.06-1.62 2.59-1.41 5.38-4.16 1.86-3.01-1.59.52-4.81 2.23-8.66 4.43l2.15 1.16"/></clipPath><clipPath><path d="m2202.95 2059.29l1.56-.95c0 0 1.5-.76 3.06-1.62 2.59-1.41 5.38-4.16 1.86-3.01-1.58.52-4.8 2.22-8.64 4.41l2.15 1.16z"/></clipPath><clipPath><path d="m2152.59 2029.34c-1.3-.12-5.72 2.18-2.72 2.88 1.24.29 3.45-2.81 2.72-2.88"/></clipPath><clipPath><path d="m2139.15 2049.09c.22-2.33 2.87-1.7 2.87-1.7 0 0 .23 12.7.05 17.45-.14 3.63-.37 8.61-.55 9.99-.48 3.71-2.56-1.38-2.44-2.93.07-.88.08-5.76.28-8.73l.12.08c.18-1.64-.47-12.61-.32-14.14z"/></clipPath><clipPath><path d="m2187.14 2009.39c-1.3-.12-5.72 2.18-2.72 2.88 1.24.29 3.45-2.81 2.72-2.88"/></clipPath><clipPath><path d="m2139.75 2051.91c-2.18.86-2.82-1.78-2.82-1.78 0 0 11.21-5.96 15.52-7.97 3.3-1.52 7.84-3.58 9.15-4.04 3.53-1.25-.06 2.91-1.51 3.51-.81.34-5.17 2.54-7.91 3.72l.02-.14c-1.55.58-11.02 6.14-12.46 6.71z"/></clipPath><clipPath><path d="m2224.43 2029.93c-1.48-.78-19.07-11.29-24.38-12.74-3.31-.9-2.16 1.27.37 2.58 1.53.79 2.98 1.49 2.98 1.49 0 0 14.63 7.91 18.19 9.55 3.56 1.63 4.31-.1 2.83-.88z"/></clipPath><clipPath><path d="m2178.25 2025.04l-5.32-3.39-45.11 64.68c0 0 32.99 16.13 35.11 17 4.53 1.86 22.69-6.39 45.85-22.88.97-.69 1.77-6.71 1.5-13.65-.07-1.9-.25-3.9-.45-5.76l-1.67 1.08-30.6-16.51v-17.29l.68-3.26z"/></clipPath><clipPath><path d="m2191.48 2053.1l1.61-.98c0 0 1.5-.76 3.06-1.62 2.59-1.41 5.38-4.16 1.86-3.01-1.59.52-4.82 2.23-8.68 4.44l2.15 1.16z"/></clipPath><clipPath><path d="m1874.95 1862.54c-.04-.21-.08-.5-.36-.34-.16.11-20.56 11.86-20.56 11.86l-43.37 25.04c-.08.06-.14.09-.2.13-.17.1-.31.34-.31.55 0 .14.01 6.47.54 10.51.09.65.02 2.79.31 5.16l36.85 21.33 15.43-8.5-22.96-12.51c3.93-2.27 8.39-5.14 13.45-8.74 1.85-1.32 2.24-2.84 2.3-4.95.11-3.69.89-11.56 3.14-13.86 3.26-3.33 7.32-5.11 10.88-8.43 1.06-.84 2.02-1.91 2.85-3.18.47-.67.86-1.39 1.1-2.02.68-1.53 1.1-3.19 1.1-4.68 0-.46-.11-4.99-.17-7.37z"/></clipPath><clipPath><path d="m2185.75 2050.01l1.63-.99c0 0 1.5-.76 3.06-1.62 2.59-1.41 5.38-4.16 1.86-3.01-1.59.52-4.84 2.24-8.71 4.45l2.15 1.16z"/></clipPath><clipPath><path d="m1845.5 1908.87c0 0 5.12-2.37 6.06-2.76 1.66-.69 5.8-5.49 1.74-4.04-1.52.54-3.71 1.54-7.52 3.3-4.97 2.31-2.06 4.18-.28 3.51z"/></clipPath><clipPath><path d="m1910.73 1882.1c-.04-.21-.08-.5-.36-.34-.14.09-25.86-14.87-33.71-19.37.04 1.83.09 5.71.09 6.57 0 1.87-.5 3.9-1.35 5.83-.37.95-.88 1.85-1.47 2.71-.98 1.5-2.17 2.85-3.47 3.89-1.22 1.14-2.56 2.23-3.91 3.26-1.14.87-7.08 5.73-7.7 6.79-1.37 2.37.8 13.28-4.91 17.35-4.59 3.27-8.71 5.95-12.42 8.14l36.21 18.35c3.79-2.3 7.66-4.85 11.29-7.44 1.85-1.32 2.24-2.84 2.3-4.95.11-3.69.71-11.9 3.14-13.86 3.63-2.93 7.32-5.11 10.88-8.43 1.06-.84 2.02-1.91 2.85-3.18.47-.67.86-1.39 1.1-2.02.68-1.53 1.1-3.19 1.1-4.68 0-.46.41-6.24.35-8.63z"/></clipPath><clipPath><path d="m1907 1893.36c-1.77-1-22.6-14.06-29.24-16.31-4.14-1.4-.9.57 2.14 2.25 1.83 1.02 3.59 1.93 3.59 1.93 0 0 17.5 10.06 21.82 12.22 4.32 2.16 3.47.92 1.7-.08z"/></clipPath><clipPath><path d="m1886.19 1921.73c2.51.99 3.25-2.05 3.25-2.05 0 0-12.93-6.88-17.9-9.19-3.81-1.76-9.04-4.12-10.56-4.66-4.07-1.45.07 3.35 1.74 4.04.94.39 5.97 2.93 9.12 4.29l-.02-.16c1.78.67 12.72 7.09 14.37 7.74z"/></clipPath><clipPath><path d="m2224.43 2029.93c-1.48-.78-19.07-11.29-24.38-12.74-3.31-.9-2.16 1.27.37 2.58 1.53.79 2.98 1.49 2.98 1.49 0 0 14.63 7.91 18.19 9.55 3.56 1.63 4.31-.1 2.83-.88z"/></clipPath><clipPath><path d="m1823.62 1890.73c-1.5-.13-6.6 2.52-3.13 3.32 1.43.33 3.98-3.24 3.13-3.32"/></clipPath><clipPath><path d="m2168.1 2031.57c-1.2.7-1.9 2.23-.23 1.83l7.73-4.06c5.53-3.17 12.38-7.21 12.38-7.21 0 0 1.48-.79 3.03-1.67 2.56-1.46 5.31-4.26 1.81-3.04-5.62 1.95-23.22 13.28-24.72 14.14z"/></clipPath><clipPath><path d="m1863.48 1867.72c-1.5-.13-6.6 2.52-3.13 3.32 1.43.33 3.98-3.24 3.13-3.32"/></clipPath><clipPath><path d="m1825.71 1906.22c-1.73 1-2.55 2.24 1.66.08 4.21-2.16 21.28-12.22 21.28-12.22 0 0 1.71-.91 3.5-1.93 2.96-1.68 6.12-3.65 2.08-2.25-6.48 2.25-26.79 15.32-28.52 16.31z"/></clipPath><clipPath><path d="m2188.74 2035.8c1.5-.8 6.34-6.38 2.7-4.79-1.5.66-4.88 2.66-8.33 4.78-.03 1.35-.24 2.8-.35 3.79 2.84-1.59 5.14-3.32 5.99-3.77z"/></clipPath><clipPath><path d="m2140.75 2074.96c-2.18.86-2.82-1.78-2.82-1.78 0 0 11.21-5.96 15.52-7.97 3.3-1.52 7.84-3.58 9.15-4.04 3.53-1.25-.06 2.91-1.51 3.51-.81.34-5.17 2.54-7.91 3.72l.02-.14c-1.55.58-11.02 6.14-12.46 6.71z"/></clipPath><clipPath><path d="m2078.59 2026.22c6.46-.23 11.05-3.4 10.94-6.6-.11-3.2-4.91-6.05-11.37-5.82-6.46.23-11.05 3.4-10.94 6.6.11 3.2 4.7 6.05 11.37 5.82"/></clipPath><clipPath><path d="m2219.68 2046.39c.66.26 1.17.2 1.58-.01.57.46 1.69.13 1.69.13 0 0-.01-6.87-.19-9.42-.15-1.95-.37-4.62-.51-5.35-.38-1.97-1.75.93-1.64 1.76.06.47.13 3.1.3 4.69.18.54.07 3.5.03 5.58-2.43-1.28-7.21-3.8-10.85-5.62.33-2.21.82-5.56.96-7.19.16-1.95.36-4.62.34-5.37-.07-2-1.87.65-1.9 1.48-.02.47-.36 3.09-.44 4.68l.09-.04c.01.6-.55 3.44-.92 5.49-.45-.22-.87-.42-1.23-.59-3.3-1.52-7.84-3.58-9.15-4.04-3.53-1.25.06 2.91 1.51 3.51.81.34 5.17 2.54 7.91 3.72l-.01-.14c1.55.58 11.02 6.14 12.46 6.71z"/></clipPath><clipPath><path d="m2092.57 2035.22c6.47 0 11.16-3.01 11.16-6.21 0-3.2-4.7-6.21-11.16-6.21-6.47 0-11.16 3.01-11.16 6.21 0 3.2 4.7 6.21 11.16 6.21"/></clipPath><clipPath><path d="m2093.73 1998.23c0 0 4.2-1.94 4.96-2.26 1.36-.57 4.75-4.5 1.42-3.31-1.24.44-3.03 1.26-6.15 2.7-4.07 1.89-1.69 3.42-.23 2.87"/></clipPath><clipPath><path d="m2144.08 1985.53c-1.45-.82-18.5-11.51-23.94-13.36-3.39-1.15-.73.46 1.75 1.84 1.5.83 2.94 1.58 2.94 1.58 0 0 14.33 8.23 17.86 10 3.54 1.77 2.84.75 1.39-.06"/></clipPath><clipPath><path d="m2097.75 2021.21c6.44 0 11.12-2.98 11.16-6.17l-11.44-6.26c-6.33.08-10.89 3.06-10.89 6.21 0 3.2 4.7 6.21 11.16 6.21z"/></clipPath><clipPath><path d="m2160.84 1743.35c-.07 2.02.94 38.67-.6 45.46-.96 4.23-2.02-.23-1.88-3.68.09-2.08.22-4.05.22-4.05 0 0-.17-32.24.23-37.02.4-4.79 2.1-2.73 2.03-.71"/></clipPath><clipPath><path d="m2047.81 2199.07c6.87-5.98 11.25-9.4 19.19-14.55 7.94-5.15 20.32-8.04 23.68-8.5 3.36-.46 25.51-14.2 32.99-21.66 7.49-7.46 20.28-11.4 25.67-17.99 5.39-6.59.93-2.84 6.81-3.54 5.89-.7 6.4-12.26 6.4-12.26l-.23-1.68c0 0-45.32 23.56-50.11 27.41-4.79 3.85-41.18 23.23-44.51 26.85-3.32 3.62-20.26 12.46-21.71 15-1.44 2.54-.47 12.85-.47 12.85l2.29-1.92z"/></clipPath><clipPath><path d="m2198.64 1818.36c-1.76-.98-32.39-20.73-38.95-22.89-4.09-1.35-.85 1.87 2.16 3.52 1.82-1 3.55-1.9 3.55-1.9 0 0 27.32-16.75 31.59-18.87 4.28-2.12 3.4.4 1.65 1.39z"/></clipPath><clipPath><path d="m2072.09 2173.72c-2.57-.23-11.32 4.32-5.38 5.69 2.46.57 6.82-5.56 5.38-5.69"/></clipPath><clipPath><path d="m2147.34 2129.72c-2.57-.23-11.32 4.32-5.38 5.69 2.46.57 6.82-5.56 5.38-5.69"/></clipPath><clipPath><path d="m2095.34 2159.47c-2.57-.23-11.32 4.32-5.38 5.69 2.46.57 6.82-5.56 5.38-5.69"/></clipPath><clipPath><path d="m2127.04 2008.76c2.06.81 2.66-1.68 2.66-1.68 0 0-10.59-5.63-14.66-7.53-3.12-1.44-7.4-3.38-8.64-3.82-3.33-1.19.06 2.74 1.42 3.31.77.32 4.88 2.4 7.47 3.51l-.01-.14c1.46.55 10.41 5.8 11.77 6.33z"/></clipPath><clipPath><path d="m1990.8 2030.78c2.53-.23 11.15 4.26 5.3 5.61-2.42.56-6.72-5.48-5.3-5.61"/></clipPath><clipPath><path d="m2077.52 1996.06c-1.41.82-2.09 1.83 1.36.07 3.45-1.77 17.42-10 17.42-10 0 0 1.4-.75 2.86-1.58 2.42-1.38 5.01-2.99 1.71-1.84-5.62 1.95-21.93 12.54-23.35 13.36z"/></clipPath><clipPath><path d="m1967.89 2016.74c2.53-.23 11.15 4.26 5.3 5.61-2.42.56-6.72-5.48-5.3-5.61"/></clipPath><clipPath><path d="m2014.58 2055.75c-6.77-5.89-11.09-9.26-18.9-14.33-7.82-5.07-20.02-7.92-23.33-8.37-3.31-.46-25.13-13.99-32.5-21.34-7.38-7.35-19.98-11.23-25.29-17.73-5.31-6.49-.91-2.8-6.71-3.49-5.8-.69-6.3-12.08-6.3-12.08l.23-1.66c0 0 44.65 23.22 49.37 27.01 4.72 3.79 40.57 22.89 43.85 26.46 3.27 3.57 19.97 12.27 21.39 14.78 1.42 2.51.47 12.66.47 12.66l-2.26-1.89z"/></clipPath><clipPath><path d="m1916.66 1987.43c2.53-.23 11.15 4.26 5.3 5.61-2.42.56-6.72-5.48-5.3-5.61"/></clipPath><clipPath><path d="m1848.48 2090.74c1.51-.8 30.26-17.76 35.7-19.24 3.39-.92 2.21 1.3-.38 2.64-1.56.81-3.05 1.53-3.05 1.53 0 0-25.73 14.31-29.37 15.98-3.64 1.67-4.41-.1-2.9-.9z"/></clipPath><clipPath><path d="m2108.44 1964.54c-1.23-.11-5.4 2.06-2.57 2.72 1.17.27 3.26-2.65 2.57-2.72"/></clipPath><clipPath><path d="m1969.95 2154.71c1.51-.8 30.26-17.76 35.7-19.24 3.39-.92 2.21 1.3-.38 2.64-1.56.81-3.05 1.53-3.05 1.53 0 0-25.73 14.3-29.37 15.98-3.64 1.67-4.41-.1-2.9-.9z"/></clipPath><clipPath><path d="m2075.81 1983.38c-1.23-.11-5.4 2.06-2.57 2.72 1.17.27 3.26-2.65 2.57-2.72"/></clipPath><clipPath><path d="m2147.13 1976.31c-.04-.17-.07-.41-.29-.28-.13.09-16.84 9.71-16.84 9.71l-35.51 20.5c-.07.05-.12.07-.17.1-.14.08-.26.28-.26.45 0 .12.01 5.3.44 8.61.07.53.02 2.28.25 4.22l30.17 17.47 12.63-6.96-18.8-10.24c3.22-1.86 6.87-4.21 11.01-7.16 1.52-1.08 1.83-2.33 1.88-4.06.09-3.02.73-9.47 2.57-11.35 2.67-2.73 6-4.18 8.9-6.9.86-.69 1.66-1.57 2.33-2.61.38-.55.7-1.14.9-1.65.56-1.26.9-2.61.9-3.83 0-.38-.09-4.09-.14-6.04z"/></clipPath></defs><path fill="#f1f1e7" d="m-.649-.347h102.29v101.64h-102.29z"/><g word-spacing="0" line-height="125" letter-spacing="0"><g transform="scale(1.01397.98622)"><text y="2259.99" x="1157.88" fill="#4d4d4d" font-family="Roboto" text-align="start" font-weight="900" font-size="35.24"><tspan y="2259.99" x="1157.88"/></text><text y="2196.39" x="1084.97" fill="#000" font-family="Sans" font-size="17.62"><tspan y="2196.39" x="1084.97"/></text><text y="3844.03" x="2147.67" fill="#4d4d4d" font-family="Roboto" text-align="start" font-weight="900" font-size="35.24"><tspan y="3844.03" x="2147.67"/></text><text y="3780.42" x="2074.75" fill="#000" font-family="Sans" font-size="17.62"><tspan y="3780.42" x="2074.75"/></text></g><g fill="#000" font-family="Sans"><flowRoot transform="matrix(.44669 0 0 .43447 1057.5 1989.55)" font-size="40"><flowRegion><path d="m1526.28 3970.85h148.96v80.21h-148.96z" id="0"/></flowRegion></flowRoot><text transform="scale(1.01397.98622)" y="3692.95" x="1714.3" font-size="17.62"><tspan y="3692.95" x="1714.3"/><tspan y="3714.98" x="1714.3"/></text><flowRoot transform="matrix(.44669 0 0 .43447 1057.5 1989.55)" font-size="40"><flowRegion><path d="m1392.21 3786.37h74.48v67.61h-74.48z" id="1"/></flowRegion></flowRoot><text transform="scale(1.01397.98622)" y="3875.49" x="884.16" font-size="17.62"><tspan y="3875.49" x="884.16"/></text><flowRoot transform="matrix(.44669 0 0 .43447 1057.5 1989.55)" font-size="40"><flowRegion><path d="m1025.76 3789.15h254.28v165.21h-254.28z" id="2"/></flowRegion></flowRoot><text transform="scale(1.01397.98622)" y="4754.74" x="3943.15" font-size="17.62"><tspan y="4754.74" x="3943.15"/></text></g></g><g fill="#afdde9"><path d="m20.891 19.02h58.21l14.33 15.16h-86.87zm-14.33 15.17l43.43 51.4 43.44-51.4-49.15-10.64"/><path d="m6.561 34.19l43.43 51.4 43.44-51.4-49.15-10.64z"/></g><path d="m20.961 18.893l-14.4 15.3h25.99z" opacity=".61" fill="#37abc8"/><path d="m50 18.893l-17.48 15.3h34.19z" fill="#d7eef4"/><path d="m79.04 18.893l-12.3 15.3h26.69z" opacity=".61" fill="#37abc8"/><g fill="#fff"><path d="m49.33 34.603l-21.28 25.71h42.56zm0 .22l-21.28-15.96h42.56m-21.28 15.96l-21.28-15.96h42.56" opacity=".39"/><path d="m49.33 34.823l-21.28-15.96h42.56z" opacity=".39"/><path d="m6.461 34.25l22.08 26.06 6.87-41.6z" opacity=".39"/><path d="m92.74 35.2l-21.46 25.11-7.37-41.47z" opacity=".39"/><path d="m49.47 85.5l-10.9-13.41 6.36-4.57z" opacity=".39"/></g><path d="m49.981 85.83l10.9-13.41-6.36-4.57z" opacity=".39" fill="#afc6e9"/><path d="m66.771 34.19l-16.76 51.21-17.49-51.21z" opacity=".72" fill="#fff"/><g word-spacing="0" line-height="125" letter-spacing="0"><text y="-350.74" x="-1368.68" fill="#4d4d4d" font-family="Roboto" text-align="start" font-weight="900" font-size="48.12"><tspan y="-350.74" x="-1368.68"/></text><text y="-437.58" x="-1468.24" fill="#000" font-family="Sans" font-size="24.06"><tspan y="-437.58" x="-1468.24"/></text><text y="1812.17" x="-17.189" fill="#4d4d4d" font-family="Roboto" text-align="start" font-weight="900" font-size="48.12"><tspan y="1812.17" x="-17.189"/></text><g fill="#000" font-family="Sans" font-size="24.06"><text y="1725.32" x="-116.75"><tspan y="1725.32" x="-116.75"/></text><text y="1013.55" x="-1401.89"><tspan y="1013.55" x="-1401.89"/></text><text y="1071.16" x="-1440.3"><tspan y="1071.16" x="-1440.3"/></text></g></g></svg>
